  0
SECTION
  2
HEADER
  9
$ACADVER
  1
AC1015
  9
$ACADMAINTVER
 70
     6
  9
$DWGCODEPAGE
  3
ANSI_1252
  9
$INSBASE
 10
0.0
 20
0.0
 30
0.0
  9
$EXTMIN
 10
21.9232678853
 20
-273.6067833326
 30
0.0
  9
$EXTMAX
 10
315.4106339644
 20
-49.0147417422
 30
0.0
  9
$LIMMIN
 10
0.0
 20
0.0
  9
$LIMMAX
 10
420.0
 20
297.0
  9
$ORTHOMODE
 70
     0
  9
$REGENMODE
 70
     1
  9
$FILLMODE
 70
     1
  9
$QTEXTMODE
 70
     0
  9
$MIRRTEXT
 70
     1
  9
$LTSCALE
 40
1.0
  9
$ATTMODE
 70
     1
  9
$TEXTSIZE
 40
3.5
  9
$TRACEWID
 40
1.0
  9
$TEXTSTYLE
  7
Standard
  9
$CLAYER
  8
0
  9
$CELTYPE
  6
ByLayer
  9
$CECOLOR
 62
   256
  9
$CELTSCALE
 40
1.0
  9
$DISPSILH
 70
     0
  9
$DIMSCALE
 40
1.0
  9
$DIMASZ
 40
3.556
  9
$DIMEXO
 40
0.0
  9
$DIMDLI
 40
3.75
  9
$DIMRND
 40
0.0
  9
$DIMDLE
 40
0.0
  9
$DIMEXE
 40
1.0
  9
$DIMTP
 40
0.0
  9
$DIMTM
 40
0.0
  9
$DIMTXT
 40
3.5
  9
$DIMCEN
 40
2.5
  9
$DIMTSZ
 40
0.0
  9
$DIMTOL
 70
     0
  9
$DIMLIM
 70
     0
  9
$DIMTIH
 70
     1
  9
$DIMTOH
 70
     1
  9
$DIMSE1
 70
     0
  9
$DIMSE2
 70
     0
  9
$DIMTAD
 70
     1
  9
$DIMZIN
 70
     1
  9
$DIMBLK
  1

  9
$DIMASO
 70
     1
  9
$DIMSHO
 70
     1
  9
$DIMPOST
  1

  9
$DIMAPOST
  1

  9
$DIMALT
 70
     0
  9
$DIMALTD
 70
     3
  9
$DIMALTF
 40
0.0393700787
  9
$DIMLFAC
 40
1.0
  9
$DIMTOFL
 70
     1
  9
$DIMTVP
 40
0.0
  9
$DIMTIX
 70
     0
  9
$DIMSOXD
 70
     0
  9
$DIMSAH
 70
     0
  9
$DIMBLK1
  1

  9
$DIMBLK2
  1

  9
$DIMSTYLE
  2
ISO-25
  9
$DIMCLRD
 70
     0
  9
$DIMCLRE
 70
     0
  9
$DIMCLRT
 70
     0
  9
$DIMTFAC
 40
1.0
  9
$DIMGAP
 40
1.524
  9
$DIMJUST
 70
     0
  9
$DIMSD1
 70
     0
  9
$DIMSD2
 70
     0
  9
$DIMTOLJ
 70
     0
  9
$DIMTZIN
 70
     1
  9
$DIMALTZ
 70
     0
  9
$DIMALTTZ
 70
     0
  9
$DIMUPT
 70
     0
  9
$DIMDEC
 70
     2
  9
$DIMTDEC
 70
     2
  9
$DIMALTU
 70
     2
  9
$DIMALTTD
 70
     3
  9
$DIMTXSTY
  7
Standard
  9
$DIMAUNIT
 70
     0
  9
$DIMADEC
 70
     2
  9
$DIMALTRND
 40
0.0
  9
$DIMAZIN
 70
     0
  9
$DIMDSEP
 70
    44
  9
$DIMATFIT
 70
     3
  9
$DIMFRAC
 70
     0
  9
$DIMLDRBLK
  1

  9
$DIMLUNIT
 70
     2
  9
$DIMLWD
 70
    -2
  9
$DIMLWE
 70
    -2
  9
$DIMTMOVE
 70
     0
  9
$LUNITS
 70
     2
  9
$LUPREC
 70
     2
  9
$SKETCHINC
 40
1.0
  9
$FILLETRAD
 40
10.0
  9
$AUNITS
 70
     0
  9
$AUPREC
 70
     2
  9
$MENU
  1
.
  9
$ELEVATION
 40
0.0
  9
$PELEVATION
 40
0.0
  9
$THICKNESS
 40
0.0
  9
$LIMCHECK
 70
     0
  9
$CHAMFERA
 40
0.0
  9
$CHAMFERB
 40
0.0
  9
$CHAMFERC
 40
0.0
  9
$CHAMFERD
 40
0.0
  9
$SKPOLY
 70
     0
  9
$TDCREATE
 40
2459635.92417765
  9
$TDUCREATE
 40
2459635.465844317
  9
$TDUPDATE
 40
2459636.244728241
  9
$TDUUPDATE
 40
2459635.786394908
  9
$TDINDWG
 40
0.0000000116
  9
$TDUSRTIMER
 40
0.0000000116
  9
$USRTIMER
 70
     1
  9
$ANGBASE
 50
0.0
  9
$ANGDIR
 70
     0
  9
$PDMODE
 70
     0
  9
$PDSIZE
 40
-1.0
  9
$PLINEWID
 40
0.0
  9
$SPLFRAME
 70
     0
  9
$SPLINETYPE
 70
     6
  9
$SPLINESEGS
 70
     8
  9
$HANDSEED
  5
31C
  9
$SURFTAB1
 70
     6
  9
$SURFTAB2
 70
     6
  9
$SURFTYPE
 70
     6
  9
$SURFU
 70
     6
  9
$SURFV
 70
     6
  9
$UCSBASE
  2

  9
$UCSNAME
  2

  9
$UCSORG
 10
0.0
 20
0.0
 30
0.0
  9
$UCSXDIR
 10
1.0
 20
0.0
 30
0.0
  9
$UCSYDIR
 10
0.0
 20
1.0
 30
0.0
  9
$UCSORTHOREF
  2

  9
$UCSORTHOVIEW
 70
     0
  9
$UCSORGTOP
 10
0.0
 20
0.0
 30
0.0
  9
$UCSORGBOTTOM
 10
0.0
 20
0.0
 30
0.0
  9
$UCSORGLEFT
 10
0.0
 20
0.0
 30
0.0
  9
$UCSORGRIGHT
 10
0.0
 20
0.0
 30
0.0
  9
$UCSORGFRONT
 10
0.0
 20
0.0
 30
0.0
  9
$UCSORGBACK
 10
0.0
 20
0.0
 30
0.0
  9
$PUCSBASE
  2

  9
$PUCSNAME
  2

  9
$PUCSORG
 10
0.0
 20
0.0
 30
0.0
  9
$PUCSXDIR
 10
1.0
 20
0.0
 30
0.0
  9
$PUCSYDIR
 10
0.0
 20
1.0
 30
0.0
  9
$PUCSORTHOREF
  2

  9
$PUCSORTHOVIEW
 70
     0
  9
$PUCSORGTOP
 10
0.0
 20
0.0
 30
0.0
  9
$PUCSORGBOTTOM
 10
0.0
 20
0.0
 30
0.0
  9
$PUCSORGLEFT
 10
0.0
 20
0.0
 30
0.0
  9
$PUCSORGRIGHT
 10
0.0
 20
0.0
 30
0.0
  9
$PUCSORGFRONT
 10
0.0
 20
0.0
 30
0.0
  9
$PUCSORGBACK
 10
0.0
 20
0.0
 30
0.0
  9
$USERI1
 70
     0
  9
$USERI2
 70
     0
  9
$USERI3
 70
     0
  9
$USERI4
 70
     0
  9
$USERI5
 70
     0
  9
$USERR1
 40
0.0
  9
$USERR2
 40
0.0
  9
$USERR3
 40
0.0
  9
$USERR4
 40
0.0
  9
$USERR5
 40
0.0
  9
$WORLDVIEW
 70
     1
  9
$SHADEDGE
 70
     3
  9
$SHADEDIF
 70
    70
  9
$TILEMODE
 70
     1
  9
$MAXACTVP
 70
    64
  9
$PINSBASE
 10
0.0
 20
0.0
 30
0.0
  9
$PLIMCHECK
 70
     0
  9
$PEXTMIN
 10
1.0000000000E+20
 20
1.0000000000E+20
 30
1.0000000000E+20
  9
$PEXTMAX
 10
-1.0000000000E+20
 20
-1.0000000000E+20
 30
-1.0000000000E+20
  9
$PLIMMIN
 10
0.0
 20
0.0
  9
$PLIMMAX
 10
420.0
 20
297.0
  9
$UNITMODE
 70
     0
  9
$VISRETAIN
 70
     1
  9
$PLINEGEN
 70
     0
  9
$PSLTSCALE
 70
     1
  9
$TREEDEPTH
 70
  3020
  9
$CMLSTYLE
  2
Standard
  9
$CMLJUST
 70
     0
  9
$CMLSCALE
 40
20.0
  9
$PROXYGRAPHICS
 70
     1
  9
$MEASUREMENT
 70
     1
  9
$CELWEIGHT
370
    -1
  9
$ENDCAPS
280
     0
  9
$JOINSTYLE
280
     0
  9
$LWDISPLAY
290
     1
  9
$INSUNITS
 70
     4
  9
$HYPERLINKBASE
  1

  9
$STYLESHEET
  1

  9
$XEDIT
290
     1
  9
$CEPSNTYPE
380
     0
  9
$PSTYLEMODE
290
     1
  9
$FINGERPRINTGUID
  2
{3477aeae-b2dd-4d34-8247-1d41f2bb107b}
  9
$VERSIONGUID
  2
{FAEB1C32-E019-11D5-929B-00C0DF256EC4}
  9
$EXTNAMES
290
     1
  9
$PSVPSCALE
 40
0.0
  9
$OLESTARTUP
290
     0
  0
ENDSEC
  0
SECTION
  2
CLASSES
  0
CLASS
  1
ACDBDICTIONARYWDFLT
  2
AcDbDictionaryWithDefault
  3
ObjectDBX Classes
 90
        0
280
     0
281
     0
  0
CLASS
  1
VISUALSTYLE
  2
AcDbVisualStyle
  3
ObjectDBX Classes
 90
     4095
280
     0
281
     0
  0
CLASS
  1
MATERIAL
  2
AcDbMaterial
  3
ObjectDBX Classes
 90
     1153
280
     0
281
     0
  0
CLASS
  1
SCALE
  2
AcDbScale
  3
ObjectDBX Classes
 90
     1153
280
     0
281
     0
  0
CLASS
  1
TABLESTYLE
  2
AcDbTableStyle
  3
ObjectDBX Classes
 90
     4095
280
     0
281
     0
  0
CLASS
  1
MLEADERSTYLE
  2
AcDbMLeaderStyle
  3
ACDB_MLEADERSTYLE_CLASS
 90
     4095
280
     0
281
     0
  0
CLASS
  1
SUN
  2
AcDbSun
  3
SCENEOE
 90
     1153
280
     0
281
     0
  0
CLASS
  1
ACDBPLACEHOLDER
  2
AcDbPlaceHolder
  3
ObjectDBX Classes
 90
        0
280
     0
281
     0
  0
CLASS
  1
LAYOUT
  2
AcDbLayout
  3
ObjectDBX Classes
 90
        0
280
     0
281
     0
  0
ENDSEC
  0
SECTION
  2
TABLES
  0
TABLE
  2
VPORT
  5
8
330
0
100
AcDbSymbolTable
 70
     1
  0
VPORT
  5
29
330
8
100
AcDbSymbolTableRecord
100
AcDbViewportTableRecord
  2
*Active
 70
     0
 10
0.0
 20
0.0
 11
1.0
 21
1.0
 12
168.6669509248
 22
-161.3107625374
 13
0.0
 23
0.0
 14
10.0
 24
10.0
 15
10.0
 25
10.0
 16
0.0
 26
0.0
 36
1.0
 17
0.0
 27
0.0
 37
0.0
 40
229.0838824222
 41
1.3067576393
 42
50.0
 43
0.0
 44
0.0
 50
0.0
 51
0.0
 71
     0
 72
   100
 73
     1
 74
     3
 75
     0
 76
     0
 77
     0
 78
     0
281
     0
 65
     1
110
0.0
120
0.0
130
0.0
111
1.0
121
0.0
131
0.0
112
0.0
122
1.0
132
0.0
 79
     0
146
0.0
  0
ENDTAB
  0
TABLE
  2
LTYPE
  5
5
330
0
100
AcDbSymbolTable
 70
     6
  0
LTYPE
  5
14
330
5
100
AcDbSymbolTableRecord
100
AcDbLinetypeTableRecord
  2
ByBlock
 70
     0
  3

 72
    65
 73
     0
 40
0.0
  0
LTYPE
  5
15
330
5
100
AcDbSymbolTableRecord
100
AcDbLinetypeTableRecord
  2
ByLayer
 70
     0
  3

 72
    65
 73
     0
 40
0.0
  0
LTYPE
  5
16
330
5
100
AcDbSymbolTableRecord
100
AcDbLinetypeTableRecord
  2
Continuous
 70
     0
  3
Solid line
 72
    65
 73
     0
 40
0.0
  0
LTYPE
  5
6E
330
5
100
AcDbSymbolTableRecord
100
AcDbLinetypeTableRecord
  2
HIDDEN
 70
     0
  3
Hidden __ __ __ __ __ __ __ __ __ __ __ __ __ __
 72
    65
 73
     2
 40
1.905
 49
1.27
 74
     0
 49
-0.635
 74
     0
  0
LTYPE
  5
6F
330
5
100
AcDbSymbolTableRecord
100
AcDbLinetypeTableRecord
  2
PHANTOM
 70
     0
  3
Phantom ______  __  __  ______  __  __  ______
 72
    65
 73
     6
 40
12.7
 49
6.35
 74
     0
 49
-1.27
 74
     0
 49
1.27
 74
     0
 49
-1.27
 74
     0
 49
1.27
 74
     0
 49
-1.27
 74
     0
  0
LTYPE
  5
70
330
5
100
AcDbSymbolTableRecord
100
AcDbLinetypeTableRecord
  2
CENTER
 70
     0
  3
Center ____ _ ____ _ ____ _ ____ _ ____ _ ____
 72
    65
 73
     4
 40
10.16
 49
6.35
 74
     0
 49
-1.27
 74
     0
 49
1.27
 74
     0
 49
-1.27
 74
     0
  0
LTYPE
  5
71
330
5
100
AcDbSymbolTableRecord
100
AcDbLinetypeTableRecord
  2
CENTERX2
 70
     0
  3
Center (2x) ________  __  ________  __  _____
 72
    65
 73
     4
 40
20.32
 49
12.7
 74
     0
 49
-2.54
 74
     0
 49
2.54
 74
     0
 49
-2.54
 74
     0
  0
LTYPE
  5
72
330
5
100
AcDbSymbolTableRecord
100
AcDbLinetypeTableRecord
  2
DOT2
 70
     0
  3
Dot (.5x) ........................................
 72
    65
 73
     2
 40
0.635
 49
0.0
 74
     0
 49
-0.635
 74
     0
  0
ENDTAB
  0
TABLE
  2
LAYER
  5
2
330
0
100
AcDbSymbolTable
 70
     1
  0
LAYER
  5
10
330
2
100
AcDbSymbolTableRecord
100
AcDbLayerTableRecord
  2
0
 70
     0
 62
     7
  6
Continuous
370
    -3
390
F
  0
ENDTAB
  0
TABLE
  2
STYLE
  5
3
330
0
100
AcDbSymbolTable
 70
     1
  0
STYLE
  5
11
330
3
100
AcDbSymbolTableRecord
100
AcDbTextStyleTableRecord
  2
Standard
 70
     0
 40
0.0
 41
1.0
 50
0.0
 71
     0
 42
3.5
  3
txt
  4

  0
ENDTAB
  0
TABLE
  2
VIEW
  5
6
330
0
100
AcDbSymbolTable
 70
     0
  0
ENDTAB
  0
TABLE
  2
UCS
  5
7
330
0
100
AcDbSymbolTable
 70
     0
  0
ENDTAB
  0
TABLE
  2
APPID
  5
9
330
0
100
AcDbSymbolTable
 70
     1
  0
APPID
  5
12
330
9
100
AcDbSymbolTableRecord
100
AcDbRegAppTableRecord
  2
ACAD
 70
     0
  0
ENDTAB
  0
TABLE
  2
DIMSTYLE
  5
A
330
0
100
AcDbSymbolTable
 70
     1
100
AcDbDimStyleTable
  0
DIMSTYLE
105
27
330
A
100
AcDbSymbolTableRecord
100
AcDbDimStyleTableRecord
  2
ISO-25
 70
     0
 41
2.5
 42
0.625
 43
3.75
 44
1.25
 73
     0
 74
     0
 77
     1
 78
     8
140
2.5
141
2.5
143
0.0393700787
147
0.625
171
     3
172
     1
178
     0
271
     2
272
     2
274
     3
278
    44
283
     0
284
     8
340
11
  0
ENDTAB
  0
TABLE
  2
BLOCK_RECORD
  5
1
330
0
100
AcDbSymbolTable
 70
     1
  0
BLOCK_RECORD
  5
1F
330
1
100
AcDbSymbolTableRecord
100
AcDbBlockTableRecord
  2
*Model_Space
340
22
  0
BLOCK_RECORD
  5
1B
330
1
100
AcDbSymbolTableRecord
100
AcDbBlockTableRecord
  2
*Paper_Space
340
1E
  0
BLOCK_RECORD
  5
23
330
1
100
AcDbSymbolTableRecord
100
AcDbBlockTableRecord
  2
*Paper_Space0
340
26
  0
ENDTAB
  0
ENDSEC
  0
SECTION
  2
BLOCKS
  0
BLOCK
  5
20
330
1F
100
AcDbEntity
  8
0
100
AcDbBlockBegin
  2
*Model_Space
 70
     0
 10
0.0
 20
0.0
 30
0.0
  3
*Model_Space
  1

  0
ENDBLK
  5
21
330
1F
100
AcDbEntity
  8
0
100
AcDbBlockEnd
  0
BLOCK
  5
1C
330
1B
100
AcDbEntity
 67
     1
  8
0
100
AcDbBlockBegin
  2
*Paper_Space
 70
     0
 10
0.0
 20
0.0
 30
0.0
  3
*Paper_Space
  1

  0
ENDBLK
  5
1D
330
1B
100
AcDbEntity
 67
     1
  8
0
100
AcDbBlockEnd
  0
BLOCK
  5
24
330
23
100
AcDbEntity
  8
0
100
AcDbBlockBegin
  2
*Paper_Space0
 70
     0
 10
0.0
 20
0.0
 30
0.0
  3
*Paper_Space0
  1

  0
ENDBLK
  5
25
330
23
100
AcDbEntity
  8
0
100
AcDbBlockEnd
  0
ENDSEC
  0
SECTION
  2
ENTITIES
  0
CIRCLE
  5
A3
330
1F
100
AcDbEntity
  8
0
  6
Continuous
 62
     7
370
    25
100
AcDbCircle
 10
292.0220012832
 20
-143.8107625374
 30
0.0
 40
1.499999999999943
  0
CIRCLE
  5
A4
330
1F
100
AcDbEntity
  8
0
  6
Continuous
 62
     7
370
    25
100
AcDbCircle
 10
37.8464095035
 20
-257.5914003234
 30
0.0
 40
3.999999999999943
  0
CIRCLE
  5
A5
330
1F
100
AcDbEntity
  8
0
  6
Continuous
 62
     7
370
    25
100
AcDbCircle
 10
79.0171768194
 20
-108.6760629201
 30
0.0
 40
4.000000000000028
  0
CIRCLE
  5
A6
330
1F
100
AcDbEntity
  8
0
  6
Continuous
 62
     7
370
    25
100
AcDbCircle
 10
299.4874923462
 20
-65.0301247515
 30
0.0
 40
4.0
  0
CIRCLE
  5
153
330
1F
100
AcDbEntity
  8
0
  6
Continuous
 62
     7
370
    25
100
AcDbCircle
 10
299.4874923462
 20
-257.5914003234
 30
0.0
 40
3.999999999999943
  0
CIRCLE
  5
154
330
1F
100
AcDbEntity
  8
0
  6
Continuous
 62
     7
370
    25
100
AcDbCircle
 10
258.3167250303
 20
-108.6760629201
 30
0.0
 40
3.999999999999986
  0
CIRCLE
  5
155
330
1F
100
AcDbEntity
  8
0
  6
Continuous
 62
     7
370
    25
100
AcDbCircle
 10
37.8464095035
 20
-65.0301247515
 30
0.0
 40
4.0
  0
CIRCLE
  5
156
330
1F
100
AcDbEntity
  8
0
  6
Continuous
 62
     7
370
    25
100
AcDbCircle
 10
79.0171768194
 20
-213.9454621548
 30
0.0
 40
4.000000000000028
  0
CIRCLE
  5
15F
330
1F
100
AcDbEntity
  8
0
  6
Continuous
 62
     7
370
    25
100
AcDbCircle
 10
46.1669509249
 20
-176.5607625374
 30
0.0
 40
3.499999999999943
  0
CIRCLE
  5
160
330
1F
100
AcDbEntity
  8
0
  6
Continuous
 62
     7
370
    25
100
AcDbCircle
 10
197.4169509249
 20
-146.0607625374
 30
0.0
 40
3.500000000000057
  0
CIRCLE
  5
161
330
1F
100
AcDbEntity
  8
0
  6
Continuous
 62
     7
370
    25
100
AcDbCircle
 10
213.7919509249
 20
-176.5607625374
 30
0.0
 40
3.499999999999943
  0
CIRCLE
  5
162
330
1F
100
AcDbEntity
  8
0
  6
Continuous
 62
     7
370
    25
100
AcDbCircle
 10
213.7919509249
 20
-146.0607625374
 30
0.0
 40
3.499999999999943
  0
CIRCLE
  5
163
330
1F
100
AcDbEntity
  8
0
  6
Continuous
 62
     7
370
    25
100
AcDbCircle
 10
227.9169509249
 20
-146.0607625374
 30
0.0
 40
3.499999999999972
  0
CIRCLE
  5
164
330
1F
100
AcDbEntity
  8
0
  6
Continuous
 62
     7
370
    25
100
AcDbCircle
 10
197.4169509249
 20
-176.5607625374
 30
0.0
 40
3.499999999999972
  0
CIRCLE
  5
165
330
1F
100
AcDbEntity
  8
0
  6
Continuous
 62
     7
370
    25
100
AcDbCircle
 10
183.9169509249
 20
-176.5607625374
 30
0.0
 40
3.500000000000057
  0
CIRCLE
  5
166
330
1F
100
AcDbEntity
  8
0
  6
Continuous
 62
     7
370
    25
100
AcDbCircle
 10
183.9169509249
 20
-146.0607625374
 30
0.0
 40
3.500000000000028
  0
CIRCLE
  5
167
330
1F
100
AcDbEntity
  8
0
  6
Continuous
 62
     7
370
    25
100
AcDbCircle
 10
168.6669509249
 20
-119.3107625374
 30
0.0
 40
3.499999999999972
  0
CIRCLE
  5
168
330
1F
100
AcDbEntity
  8
0
  6
Continuous
 62
     7
370
    25
100
AcDbCircle
 10
257.0220012832
 20
-143.8107625374
 30
0.0
 40
3.499999999999972
  0
CIRCLE
  5
169
330
1F
100
AcDbEntity
  8
0
  6
Continuous
 62
     7
370
    25
100
AcDbCircle
 10
227.9169509249
 20
-176.5607625374
 30
0.0
 40
3.499999999999972
  0
CIRCLE
  5
16A
330
1F
100
AcDbEntity
  8
0
  6
Continuous
 62
     7
370
    25
100
AcDbCircle
 10
244.2919509249
 20
-176.5607625374
 30
0.0
 40
3.499999999999886
  0
CIRCLE
  5
16B
330
1F
100
AcDbEntity
  8
0
  6
Continuous
 62
     7
370
    25
100
AcDbCircle
 10
257.0220012832
 20
-178.8107625374
 30
0.0
 40
3.499999999999972
  0
CIRCLE
  5
16C
330
1F
100
AcDbEntity
  8
0
  6
Continuous
 62
     7
370
    25
100
AcDbCircle
 10
244.2919509249
 20
-146.0607625374
 30
0.0
 40
3.499999999999915
  0
CIRCLE
  5
16D
330
1F
100
AcDbEntity
  8
0
  6
Continuous
 62
     7
370
    25
100
AcDbCircle
 10
109.4169509249
 20
-176.5607625374
 30
0.0
 40
3.499999999999972
  0
CIRCLE
  5
16E
330
1F
100
AcDbEntity
  8
0
  6
Continuous
 62
     7
370
    25
100
AcDbCircle
 10
93.0419509249
 20
-176.5607625374
 30
0.0
 40
3.499999999999943
  0
CIRCLE
  5
16F
330
1F
100
AcDbEntity
  8
0
  6
Continuous
 62
     7
370
    25
100
AcDbCircle
 10
93.0419509249
 20
-146.0607625374
 30
0.0
 40
3.499999999999943
  0
CIRCLE
  5
170
330
1F
100
AcDbEntity
  8
0
  6
Continuous
 62
     7
370
    25
100
AcDbCircle
 10
76.6669509249
 20
-146.0607625374
 30
0.0
 40
3.500000000000057
  0
CIRCLE
  5
171
330
1F
100
AcDbEntity
  8
0
  6
Continuous
 62
     7
370
    25
100
AcDbCircle
 10
76.6669509249
 20
-176.5607625374
 30
0.0
 40
3.500000000000057
  0
CIRCLE
  5
172
330
1F
100
AcDbEntity
  8
0
  6
Continuous
 62
     7
370
    25
100
AcDbCircle
 10
46.1669509249
 20
-146.0607625374
 30
0.0
 40
3.499999999999943
  0
CIRCLE
  5
173
330
1F
100
AcDbEntity
  8
0
  6
Continuous
 62
     7
370
    25
100
AcDbCircle
 10
33.4590656807
 20
-142.3107625374
 30
0.0
 40
3.500000000000028
  0
CIRCLE
  5
174
330
1F
100
AcDbEntity
  8
0
  6
Continuous
 62
     7
370
    25
100
AcDbCircle
 10
33.4590656807
 20
-180.3107625374
 30
0.0
 40
3.499999999999943
  0
CIRCLE
  5
175
330
1F
100
AcDbEntity
  8
0
  6
Continuous
 62
     7
370
    25
100
AcDbCircle
 10
139.9169509249
 20
-176.5607625374
 30
0.0
 40
3.500000000000114
  0
CIRCLE
  5
176
330
1F
100
AcDbEntity
  8
0
  6
Continuous
 62
     7
370
    25
100
AcDbCircle
 10
168.6669509249
 20
-203.3107625374
 30
0.0
 40
3.499999999999943
  0
CIRCLE
  5
177
330
1F
100
AcDbEntity
  8
0
  6
Continuous
 62
     7
370
    25
100
AcDbCircle
 10
153.4169509249
 20
-176.5607625374
 30
0.0
 40
3.500000000000057
  0
CIRCLE
  5
178
330
1F
100
AcDbEntity
  8
0
  6
Continuous
 62
     7
370
    25
100
AcDbCircle
 10
153.4169509249
 20
-146.0607625374
 30
0.0
 40
3.500000000000028
  0
CIRCLE
  5
179
330
1F
100
AcDbEntity
  8
0
  6
Continuous
 62
     7
370
    25
100
AcDbCircle
 10
109.4169509249
 20
-146.0607625374
 30
0.0
 40
3.499999999999972
  0
CIRCLE
  5
17A
330
1F
100
AcDbEntity
  8
0
  6
Continuous
 62
     7
370
    25
100
AcDbCircle
 10
123.5419509249
 20
-176.5607625374
 30
0.0
 40
3.499999999999972
  0
CIRCLE
  5
17B
330
1F
100
AcDbEntity
  8
0
  6
Continuous
 62
     7
370
    25
100
AcDbCircle
 10
123.5419509249
 20
-146.0607625374
 30
0.0
 40
3.5
  0
CIRCLE
  5
17C
330
1F
100
AcDbEntity
  8
0
  6
Continuous
 62
     7
370
    25
100
AcDbCircle
 10
139.9169509249
 20
-146.0607625374
 30
0.0
 40
3.499999999999943
  0
CIRCLE
  5
195
330
1F
100
AcDbEntity
  8
0
  6
Continuous
 62
     7
370
    25
100
AcDbCircle
 10
236.1044509249
 20
-142.8607625375
 30
0.0
 40
1.25
  0
CIRCLE
  5
196
330
1F
100
AcDbEntity
  8
0
  6
Continuous
 62
     7
370
    25
100
AcDbCircle
 10
84.8544509249
 20
-179.7607625374
 30
0.0
 40
1.250000000000057
  0
CIRCLE
  5
197
330
1F
100
AcDbEntity
  8
0
  6
Continuous
 62
     7
370
    25
100
AcDbCircle
 10
101.2294509249
 20
-142.8607625375
 30
0.0
 40
1.25
  0
CIRCLE
  5
198
330
1F
100
AcDbEntity
  8
0
  6
Continuous
 62
     7
370
    25
100
AcDbCircle
 10
84.8544509249
 20
-142.8607625375
 30
0.0
 40
1.25
  0
CIRCLE
  5
199
330
1F
100
AcDbEntity
  8
0
  6
Continuous
 62
     7
370
    25
100
AcDbCircle
 10
101.2294509249
 20
-179.7607625374
 30
0.0
 40
1.250000000000057
  0
CIRCLE
  5
19A
330
1F
100
AcDbEntity
  8
0
  6
Continuous
 62
     7
370
    25
100
AcDbCircle
 10
236.1044509249
 20
-179.7607625375
 30
0.0
 40
1.250000000000028
  0
CIRCLE
  5
19B
330
1F
100
AcDbEntity
  8
0
  6
Continuous
 62
     7
370
    25
100
AcDbCircle
 10
103.4112680585
 20
-148.3687786001
 30
0.0
 40
1.69999999999996
  0
CIRCLE
  5
19C
330
1F
100
AcDbEntity
  8
0
  6
Continuous
 62
     7
370
    25
100
AcDbCircle
 10
34.4112680585
 20
-161.3687786001
 30
0.0
 40
1.699999999999989
  0
CIRCLE
  5
19D
330
1F
100
AcDbEntity
  8
0
  6
Continuous
 62
     7
370
    25
100
AcDbCircle
 10
41.4112680585
 20
-161.3687786001
 30
0.0
 40
1.699999999999989
  0
CIRCLE
  5
19E
330
1F
100
AcDbEntity
  8
0
  6
Continuous
 62
     7
370
    25
100
AcDbCircle
 10
103.4112680585
 20
-174.3687786001
 30
0.0
 40
1.69999999999996
  0
CIRCLE
  5
19F
330
1F
100
AcDbEntity
  8
0
  6
Continuous
 62
     7
370
    25
100
AcDbCircle
 10
217.8894878025
 20
-205.3107625672
 30
0.0
 40
1.600000000000051
  0
CIRCLE
  5
1A0
330
1F
100
AcDbEntity
  8
0
  6
Continuous
 62
     7
370
    25
100
AcDbCircle
 10
217.8894878025
 20
-117.3107625076
 30
0.0
 40
1.599999999999966
  0
CIRCLE
  5
1A1
330
1F
100
AcDbEntity
  8
0
  6
Continuous
 62
     7
370
    25
100
AcDbCircle
 10
187.8894878025
 20
-117.3107625076
 30
0.0
 40
1.59999999999998
  0
CIRCLE
  5
1A2
330
1F
100
AcDbEntity
  8
0
  6
Continuous
 62
     7
370
    25
100
AcDbCircle
 10
149.3894878025
 20
-117.3107625076
 30
0.0
 40
1.599999999999994
  0
CIRCLE
  5
1A3
330
1F
100
AcDbEntity
  8
0
  6
Continuous
 62
     7
370
    25
100
AcDbCircle
 10
119.3894878025
 20
-117.3107625076
 30
0.0
 40
1.59999999999998
  0
CIRCLE
  5
1A4
330
1F
100
AcDbEntity
  8
0
  6
Continuous
 62
     7
370
    25
100
AcDbCircle
 10
119.3894878025
 20
-205.3107625672
 30
0.0
 40
1.599999999999994
  0
CIRCLE
  5
1A5
330
1F
100
AcDbEntity
  8
0
  6
Continuous
 62
     7
370
    25
100
AcDbCircle
 10
149.3894878025
 20
-205.3107625672
 30
0.0
 40
1.599999999999994
  0
CIRCLE
  5
1A6
330
1F
100
AcDbEntity
  8
0
  6
Continuous
 62
     7
370
    25
100
AcDbCircle
 10
187.8894878025
 20
-205.3107625672
 30
0.0
 40
1.599999999999994
  0
CIRCLE
  5
1A7
330
1F
100
AcDbEntity
  8
0
  6
Continuous
 62
     7
370
    25
100
AcDbCircle
 10
258.3167250303
 20
-213.9454621548
 30
0.0
 40
4.000000000000028
  0
CIRCLE
  5
1B0
330
1F
100
AcDbEntity
  8
0
  6
Continuous
 62
     7
370
    25
100
AcDbCircle
 10
292.0220012832
 20
-178.8107625374
 30
0.0
 40
1.499999999999943
  0
CIRCLE
  5
1D5
330
1F
100
AcDbEntity
  8
0
  6
Continuous
 62
     7
370
    25
100
AcDbCircle
 10
227.9169509249
 20
-176.5607625374
 30
0.0
 40
1.5
  0
CIRCLE
  5
1D6
330
1F
100
AcDbEntity
  8
0
  6
Continuous
 62
     7
370
    25
100
AcDbCircle
 10
46.1669509249
 20
-176.5607625374
 30
0.0
 40
1.5
  0
CIRCLE
  5
1D7
330
1F
100
AcDbEntity
  8
0
  6
Continuous
 62
     7
370
    25
100
AcDbCircle
 10
197.4169509249
 20
-146.0607625374
 30
0.0
 40
1.5
  0
CIRCLE
  5
1D8
330
1F
100
AcDbEntity
  8
0
  6
Continuous
 62
     7
370
    25
100
AcDbCircle
 10
109.4169509249
 20
-146.0607625374
 30
0.0
 40
1.499999999999972
  0
CIRCLE
  5
1D9
330
1F
100
AcDbEntity
  8
0
  6
Continuous
 62
     7
370
    25
100
AcDbCircle
 10
109.4169509249
 20
-176.5607625374
 30
0.0
 40
1.499999999999972
  0
CIRCLE
  5
1DA
330
1F
100
AcDbEntity
  8
0
  6
Continuous
 62
     7
370
    25
100
AcDbCircle
 10
213.7919509249
 20
-176.5607625374
 30
0.0
 40
1.499999999999972
  0
CIRCLE
  5
1DB
330
1F
100
AcDbEntity
  8
0
  6
Continuous
 62
     7
370
    25
100
AcDbCircle
 10
213.7919509249
 20
-146.0607625374
 30
0.0
 40
1.5
  0
CIRCLE
  5
1DC
330
1F
100
AcDbEntity
  8
0
  6
Continuous
 62
     7
370
    25
100
AcDbCircle
 10
139.9169509249
 20
-146.0607625374
 30
0.0
 40
1.5
  0
CIRCLE
  5
1DD
330
1F
100
AcDbEntity
  8
0
  6
Continuous
 62
     7
370
    25
100
AcDbCircle
 10
139.9169509249
 20
-176.5607625374
 30
0.0
 40
1.499999999999972
  0
CIRCLE
  5
1DE
330
1F
100
AcDbEntity
  8
0
  6
Continuous
 62
     7
370
    25
100
AcDbCircle
 10
168.6669509249
 20
-119.3107625374
 30
0.0
 40
1.499999999999986
  0
CIRCLE
  5
1DF
330
1F
100
AcDbEntity
  8
0
  6
Continuous
 62
     7
370
    25
100
AcDbCircle
 10
46.1669509249
 20
-146.0607625374
 30
0.0
 40
1.5
  0
CIRCLE
  5
1E0
330
1F
100
AcDbEntity
  8
0
  6
Continuous
 62
     7
370
    25
100
AcDbCircle
 10
93.0419509249
 20
-146.0607625374
 30
0.0
 40
1.499999999999972
  0
CIRCLE
  5
1E1
330
1F
100
AcDbEntity
  8
0
  6
Continuous
 62
     7
370
    25
100
AcDbCircle
 10
244.2919509249
 20
-146.0607625374
 30
0.0
 40
1.5
  0
CIRCLE
  5
1E2
330
1F
100
AcDbEntity
  8
0
  6
Continuous
 62
     7
370
    25
100
AcDbCircle
 10
76.6669509249
 20
-146.0607625374
 30
0.0
 40
1.5
  0
CIRCLE
  5
1E3
330
1F
100
AcDbEntity
  8
0
  6
Continuous
 62
     7
370
    25
100
AcDbCircle
 10
257.0220012832
 20
-178.8107625374
 30
0.0
 40
1.500000000000057
  0
CIRCLE
  5
1E4
330
1F
100
AcDbEntity
  8
0
  6
Continuous
 62
     7
370
    25
100
AcDbCircle
 10
76.6669509249
 20
-176.5607625374
 30
0.0
 40
1.5
  0
CIRCLE
  5
1E5
330
1F
100
AcDbEntity
  8
0
  6
Continuous
 62
     7
370
    25
100
AcDbCircle
 10
257.0220012832
 20
-143.8107625374
 30
0.0
 40
1.500000000000057
  0
CIRCLE
  5
1E6
330
1F
100
AcDbEntity
  8
0
  6
Continuous
 62
     7
370
    25
100
AcDbCircle
 10
33.4590656807
 20
-142.3107625374
 30
0.0
 40
1.5
  0
CIRCLE
  5
1E7
330
1F
100
AcDbEntity
  8
0
  6
Continuous
 62
     7
370
    25
100
AcDbCircle
 10
168.6669509249
 20
-203.3107625374
 30
0.0
 40
1.499999999999972
  0
CIRCLE
  5
1E8
330
1F
100
AcDbEntity
  8
0
  6
Continuous
 62
     7
370
    25
100
AcDbCircle
 10
33.4590656807
 20
-180.3107625374
 30
0.0
 40
1.5
  0
CIRCLE
  5
1E9
330
1F
100
AcDbEntity
  8
0
  6
Continuous
 62
     7
370
    25
100
AcDbCircle
 10
244.2919509249
 20
-176.5607625374
 30
0.0
 40
1.5
  0
CIRCLE
  5
1EA
330
1F
100
AcDbEntity
  8
0
  6
Continuous
 62
     7
370
    25
100
AcDbCircle
 10
93.0419509249
 20
-176.5607625374
 30
0.0
 40
1.499999999999972
  0
CIRCLE
  5
1EB
330
1F
100
AcDbEntity
  8
0
  6
Continuous
 62
     7
370
    25
100
AcDbCircle
 10
197.4169509249
 20
-176.5607625374
 30
0.0
 40
1.5
  0
CIRCLE
  5
1EC
330
1F
100
AcDbEntity
  8
0
  6
Continuous
 62
     7
370
    25
100
AcDbCircle
 10
227.9169509249
 20
-146.0607625374
 30
0.0
 40
1.5
  0
CIRCLE
  5
1ED
330
1F
100
AcDbEntity
  8
0
  6
Continuous
 62
     7
370
    25
100
AcDbCircle
 10
183.9169509249
 20
-176.5607625374
 30
0.0
 40
1.499999999999972
  0
CIRCLE
  5
1EE
330
1F
100
AcDbEntity
  8
0
  6
Continuous
 62
     7
370
    25
100
AcDbCircle
 10
123.5419509249
 20
-176.5607625374
 30
0.0
 40
1.5
  0
CIRCLE
  5
1EF
330
1F
100
AcDbEntity
  8
0
  6
Continuous
 62
     7
370
    25
100
AcDbCircle
 10
153.4169509249
 20
-176.5607625374
 30
0.0
 40
1.5
  0
CIRCLE
  5
1F0
330
1F
100
AcDbEntity
  8
0
  6
Continuous
 62
     7
370
    25
100
AcDbCircle
 10
123.5419509249
 20
-146.0607625374
 30
0.0
 40
1.5
  0
CIRCLE
  5
1F1
330
1F
100
AcDbEntity
  8
0
  6
Continuous
 62
     7
370
    25
100
AcDbCircle
 10
153.4169509249
 20
-146.0607625374
 30
0.0
 40
1.5
  0
CIRCLE
  5
1F2
330
1F
100
AcDbEntity
  8
0
  6
Continuous
 62
     7
370
    25
100
AcDbCircle
 10
183.9169509249
 20
-146.0607625374
 30
0.0
 40
1.499999999999972
  0
LINE
  5
1F3
330
1F
100
AcDbEntity
  8
0
  6
Continuous
 62
     7
370
    25
100
AcDbLine
 10
279.9206073718
 20
-213.5306451449
 30
0.0
 11
289.0404085951
 21
-223.1987271437
 31
0.0
  0
LINE
  5
1F4
330
1F
100
AcDbEntity
  8
0
  6
Continuous
 62
     7
370
    25
100
AcDbLine
 10
291.5678094463
 20
-221.7368263731
 30
0.0
 11
281.2391589718
 21
-187.4475073049
 31
0.0
  0
LINE
  5
1F5
330
1F
100
AcDbEntity
  8
0
  6
Continuous
 62
     7
370
    25
100
AcDbLine
 10
279.2898784714
 20
-186.4705983529
 30
0.0
 11
269.7550724582
 21
-189.9409838
 31
0.0
  0
LINE
  5
1F6
330
1F
100
AcDbEntity
  8
0
  6
Continuous
 62
     7
370
    25
100
AcDbLine
 10
268.9842428403
 20
-193.1927282342
 30
0.0
 11
275.8091907339
 21
-200.4279833266
 31
0.0
  0
LINE
  5
1F7
330
1F
100
AcDbEntity
  8
0
  6
Continuous
 62
     7
370
    25
100
AcDbLine
 10
276.857271357
 20
-202.5933120379
 30
0.0
 11
277.8244312243
 21
-209.1999877224
 31
0.0
  0
LINE
  5
1F8
330
1F
100
AcDbEntity
  8
0
  6
Continuous
 62
     7
370
    25
100
AcDbLine
 10
269.7550724582
 20
-132.6805412749
 30
0.0
 11
279.2898784714
 21
-136.150926722
 31
0.0
  0
LINE
  5
1F9
330
1F
100
AcDbEntity
  8
0
  6
Continuous
 62
     7
370
    25
100
AcDbLine
 10
281.2391589718
 20
-135.17401777
 30
0.0
 11
291.5678094463
 21
-100.8846987018
 31
0.0
  0
LINE
  5
1FA
330
1F
100
AcDbEntity
  8
0
  6
Continuous
 62
     7
370
    25
100
AcDbLine
 10
289.0404085951
 20
-99.4227979311
 30
0.0
 11
279.9206073718
 21
-109.09087993
 31
0.0
  0
LINE
  5
1FB
330
1F
100
AcDbEntity
  8
0
  6
Continuous
 62
     7
370
    25
100
AcDbLine
 10
277.8244312243
 20
-113.4215373525
 30
0.0
 11
276.857271357
 21
-120.028213037
 31
0.0
  0
LINE
  5
1FC
330
1F
100
AcDbEntity
  8
0
  6
Continuous
 62
     7
370
    25
100
AcDbLine
 10
275.8091907339
 20
-122.1935417482
 30
0.0
 11
268.9842428403
 21
-129.4287968406
 31
0.0
  0
LINE
  5
1FD
330
1F
100
AcDbEntity
  8
0
  6
Continuous
 62
     7
370
    25
100
AcDbLine
 10
70.9128300981
 20
-185.5607632527
 30
0.0
 11
58.8925476508
 21
-185.5607632527
 31
0.0
  0
LINE
  5
1FE
330
1F
100
AcDbEntity
  8
0
  6
Continuous
 62
     7
370
    25
100
AcDbLine
 10
56.0200359063
 20
-187.6955036053
 30
0.0
 11
45.7660924034
 21
-221.7368263731
 31
0.0
  0
LINE
  5
1FF
330
1F
100
AcDbEntity
  8
0
  6
Continuous
 62
     7
370
    25
100
AcDbLine
 10
48.2934932546
 20
-223.1987271437
 30
0.0
 11
57.4132944779
 21
-213.5306451449
 31
0.0
  0
LINE
  5
200
330
1F
100
AcDbEntity
  8
0
  6
Continuous
 62
     7
370
    25
100
AcDbLine
 10
59.5094706254
 20
-209.1999877224
 30
0.0
 11
60.4766304927
 21
-202.5933120379
 31
0.0
  0
LINE
  5
201
330
1F
100
AcDbEntity
  8
0
  6
Continuous
 62
     7
370
    25
100
AcDbLine
 10
61.5247111158
 20
-200.4279833266
 30
0.0
 11
72.3676975207
 21
-188.9331214109
 31
0.0
  0
LINE
  5
202
330
1F
100
AcDbEntity
  8
0
  6
Continuous
 62
     7
370
    25
100
AcDbLine
 10
60.4766304927
 20
-120.028213037
 30
0.0
 11
59.5094706254
 21
-113.4215373525
 31
0.0
  0
LINE
  5
203
330
1F
100
AcDbEntity
  8
0
  6
Continuous
 62
     7
370
    25
100
AcDbLine
 10
57.4132944779
 20
-109.09087993
 30
0.0
 11
48.2934932546
 21
-99.4227979311
 31
0.0
  0
LINE
  5
204
330
1F
100
AcDbEntity
  8
0
  6
Continuous
 62
     7
370
    25
100
AcDbLine
 10
45.7660924034
 20
-100.8846987018
 30
0.0
 11
56.0200359063
 21
-134.9260214695
 31
0.0
  0
LINE
  5
205
330
1F
100
AcDbEntity
  8
0
  6
Continuous
 62
     7
370
    25
100
AcDbLine
 10
58.8925476508
 20
-137.0607618222
 30
0.0
 11
70.9128300981
 21
-137.0607618222
 31
0.0
  0
LINE
  5
206
330
1F
100
AcDbEntity
  8
0
  6
Continuous
 62
     7
370
    25
100
AcDbLine
 10
72.3676975207
 20
-133.6884036639
 30
0.0
 11
61.5247111158
 21
-122.1935417482
 31
0.0
  0
LINE
  5
207
330
1F
100
AcDbEntity
  8
0
  6
Continuous
 62
     7
370
    25
100
AcDbLine
 10
264.0944789486
 20
-175.5607625449
 30
0.0
 11
288.5944764452
 21
-175.5607625449
 31
0.0
  0
LINE
  5
208
330
1F
100
AcDbEntity
  8
0
  6
Continuous
 62
     7
370
    25
100
AcDbLine
 10
290.5944730477
 20
-173.5607622171
 30
0.0
 11
290.5944730477
 21
-149.0607628578
 31
0.0
  0
LINE
  5
209
330
1F
100
AcDbEntity
  8
0
  6
Continuous
 62
     7
370
    25
100
AcDbLine
 10
288.5944764452
 20
-147.06076253
 30
0.0
 11
264.0944789486
 21
-147.06076253
 31
0.0
  0
LINE
  5
20A
330
1F
100
AcDbEntity
  8
0
  6
Continuous
 62
     7
370
    25
100
AcDbLine
 10
262.0944748955
 20
-149.0607628578
 30
0.0
 11
262.0944748955
 21
-173.5607622171
 31
0.0
  0
LINE
  5
20B
330
1F
100
AcDbEntity
  8
0
  6
Continuous
 62
     7
370
    25
100
AcDbLine
 10
213.9596226947
 20
-215.991609169
 30
0.0
 11
216.2993620472
 21
-217.6299136111
 31
0.0
  0
LINE
  5
20C
330
1F
100
AcDbEntity
  8
0
  6
Continuous
 62
     7
370
    25
100
AcDbLine
 10
212.0166416602
 20
-215.8107612261
 30
0.0
 11
213.386047198
 21
-215.8107612261
 31
0.0
  0
LINE
  5
20D
330
1F
100
AcDbEntity
  8
0
  6
Continuous
 62
     7
370
    25
100
AcDbLine
 10
209.1033268111
 20
-217.6299136111
 30
0.0
 11
211.4430661635
 21
-215.991609169
 31
0.0
  0
LINE
  5
20E
330
1F
100
AcDbEntity
  8
0
  6
Continuous
 62
     7
370
    25
100
AcDbLine
 10
207.1603457765
 20
-217.810761554
 30
0.0
 11
208.5297513144
 21
-217.810761554
 31
0.0
  0
LINE
  5
20F
330
1F
100
AcDbEntity
  8
0
  6
Continuous
 62
     7
370
    25
100
AcDbLine
 10
204.2470309274
 20
-215.991609169
 30
0.0
 11
206.5867702799
 21
-217.6299136111
 31
0.0
  0
LINE
  5
210
330
1F
100
AcDbEntity
  8
0
  6
Continuous
 62
     7
370
    25
100
AcDbLine
 10
202.3040498929
 20
-215.8107612261
 30
0.0
 11
203.6734517054
 21
-215.8107612261
 31
0.0
  0
LINE
  5
211
330
1F
100
AcDbEntity
  8
0
  6
Continuous
 62
     7
370
    25
100
AcDbLine
 10
199.3907331811
 20
-217.6299136111
 30
0.0
 11
201.7304743962
 21
-215.991609169
 31
0.0
  0
LINE
  5
212
330
1F
100
AcDbEntity
  8
0
  6
Continuous
 62
     7
370
    25
100
AcDbLine
 10
197.4477558719
 20
-217.810761554
 30
0.0
 11
198.8171576844
 21
-217.810761554
 31
0.0
  0
LINE
  5
213
330
1F
100
AcDbEntity
  8
0
  6
Continuous
 62
     7
370
    25
100
AcDbLine
 10
186.5428644554
 20
-210.3958506116
 30
0.0
 11
196.8741785126
 21
-217.6299136111
 31
0.0
  0
LINE
  5
214
330
1F
100
AcDbEntity
  8
0
  6
Continuous
 62
     7
370
    25
100
AcDbLine
 10
154.2324959622
 20
-209.3107629547
 30
0.0
 11
183.1014058875
 21
-209.3107629547
 31
0.0
  0
LINE
  5
215
330
1F
100
AcDbEntity
  8
0
  6
Continuous
 62
     7
370
    25
100
AcDbLine
 10
140.4597233372
 20
-217.6299136111
 30
0.0
 11
150.7910373943
 21
-210.3958506116
 31
0.0
  0
LINE
  5
216
330
1F
100
AcDbEntity
  8
0
  6
Continuous
 62
     7
370
    25
100
AcDbLine
 10
138.5167441653
 20
-217.810761554
 30
0.0
 11
139.8861459778
 21
-217.810761554
 31
0.0
  0
LINE
  5
217
330
1F
100
AcDbEntity
  8
0
  6
Continuous
 62
     7
370
    25
100
AcDbLine
 10
135.6034274535
 20
-215.991609169
 30
0.0
 11
137.9431686686
 21
-217.6299136111
 31
0.0
  0
LINE
  5
218
330
1F
100
AcDbEntity
  8
0
  6
Continuous
 62
     7
370
    25
100
AcDbLine
 10
133.6604501443
 20
-215.8107612261
 30
0.0
 11
135.0298519568
 21
-215.8107612261
 31
0.0
  0
LINE
  5
219
330
1F
100
AcDbEntity
  8
0
  6
Continuous
 62
     7
370
    25
100
AcDbLine
 10
130.7471315698
 20
-217.6299136111
 30
0.0
 11
133.0868709223
 21
-215.991609169
 31
0.0
  0
LINE
  5
21A
330
1F
100
AcDbEntity
  8
0
  6
Continuous
 62
     7
370
    25
100
AcDbLine
 10
128.8041505353
 20
-217.810761554
 30
0.0
 11
130.1735560732
 21
-217.810761554
 31
0.0
  0
LINE
  5
21B
330
1F
100
AcDbEntity
  8
0
  6
Continuous
 62
     7
370
    25
100
AcDbLine
 10
125.8908356862
 20
-215.991609169
 30
0.0
 11
128.2305750387
 21
-217.6299136111
 31
0.0
  0
LINE
  5
21C
330
1F
100
AcDbEntity
  8
0
  6
Continuous
 62
     7
370
    25
100
AcDbLine
 10
123.9478546517
 20
-215.8107612261
 30
0.0
 11
125.3172601895
 21
-215.8107612261
 31
0.0
  0
LINE
  5
21D
330
1F
100
AcDbEntity
  8
0
  6
Continuous
 62
     7
370
    25
100
AcDbLine
 10
121.0345398025
 20
-217.6299136111
 30
0.0
 11
123.374279155
 21
-215.991609169
 31
0.0
  0
LINE
  5
21E
330
1F
100
AcDbEntity
  8
0
  6
Continuous
 62
     7
370
    25
100
AcDbLine
 10
119.091558768
 20
-217.810761554
 30
0.0
 11
120.4609643059
 21
-217.810761554
 31
0.0
  0
LINE
  5
21F
330
1F
100
AcDbEntity
  8
0
  6
Continuous
 62
     7
370
    25
100
AcDbLine
 10
116.1782439189
 20
-215.991609169
 30
0.0
 11
118.5179832713
 21
-217.6299136111
 31
0.0
  0
LINE
  5
220
330
1F
100
AcDbEntity
  8
0
  6
Continuous
 62
     7
370
    25
100
AcDbLine
 10
114.2352628844
 20
-215.8107612261
 30
0.0
 11
115.6046684222
 21
-215.8107612261
 31
0.0
  0
LINE
  5
221
330
1F
100
AcDbEntity
  8
0
  6
Continuous
 62
     7
370
    25
100
AcDbLine
 10
111.8385005133
 20
-217.2682177255
 30
0.0
 11
113.6616873877
 21
-215.991609169
 31
0.0
  0
LINE
  5
222
330
1F
100
AcDbEntity
  8
0
  6
Continuous
 62
     7
370
    25
100
AcDbLine
 10
106.9086673991
 20
-217.810761554
 30
0.0
 11
110.1177740233
 21
-217.810761554
 31
0.0
  0
LINE
  5
223
330
1F
100
AcDbEntity
  8
0
  6
Continuous
 62
     7
370
    25
100
AcDbLine
 10
93.5317348079
 20
-230.6198779473
 30
0.0
 11
104.7263737159
 21
-218.7522243688
 31
0.0
  0
LINE
  5
224
330
1F
100
AcDbEntity
  8
0
  6
Continuous
 62
     7
370
    25
100
AcDbLine
 10
84.8921756582
 20
-233.1432405839
 30
0.0
 11
91.4312075214
 21
-231.7924503216
 31
0.0
  0
LINE
  5
225
330
1F
100
AcDbEntity
  8
0
  6
Continuous
 62
     7
370
    25
100
AcDbLine
 10
49.7710551457
 20
-268.2673636803
 30
0.0
 11
80.6911285357
 21
-235.4883927831
 31
0.0
  0
LINE
  5
226
330
1F
100
AcDbEntity
  8
0
  6
Continuous
 62
     7
370
    25
100
AcDbLine
 10
37.3611371355
 20
-273.4848935136
 30
0.0
 11
47.4690641598
 21
-269.7846148142
 31
0.0
  0
LINE
  5
227
330
1F
100
AcDbEntity
  8
0
  6
Continuous
 62
     7
370
    25
100
AcDbLine
 10
22.5509028272
 20
-261.0343921909
 30
0.0
 11
35.3012453155
 21
-273.0616483817
 31
0.0
  0
LINE
  5
228
330
1F
100
AcDbEntity
  8
0
  6
Continuous
 62
     7
370
    25
100
AcDbLine
 10
41.0944144563
 20
-195.6399533877
 30
0.0
 11
22.0082621412
 21
-259.0026859173
 31
0.0
  0
LINE
  5
229
330
1F
100
AcDbEntity
  8
0
  6
Continuous
 62
     7
370
    25
100
AcDbLine
 10
25.4590730505
 20
-183.9419607052
 30
0.0
 11
39.7219132023
 21
-192.1766161898
 31
0.0
  0
LINE
  5
22A
330
1F
100
AcDbEntity
  8
0
  6
Continuous
 62
     7
370
    25
100
AcDbLine
 10
24.4590710239
 20
-178.4116163829
 30
0.0
 11
24.4590710239
 21
-182.2099093327
 31
0.0
  0
LINE
  5
22B
330
1F
100
AcDbEntity
  8
0
  6
Continuous
 62
     7
370
    25
100
AcDbLine
 10
30.4590682821
 20
-173.7928133437
 30
0.0
 11
25.4590730505
 21
-176.6795650104
 31
0.0
  0
LINE
  5
22C
330
1F
100
AcDbEntity
  8
0
  6
Continuous
 62
     7
370
    25
100
AcDbLine
 10
31.4590703087
 20
-150.5607621724
 30
0.0
 11
31.4590703087
 21
-172.0607629025
 31
0.0
  0
LINE
  5
22D
330
1F
100
AcDbEntity
  8
0
  6
Continuous
 62
     7
370
    25
100
AcDbLine
 10
25.4590730505
 20
-145.9419600645
 30
0.0
 11
30.4590682821
 21
-148.8287117311
 31
0.0
  0
LINE
  5
22E
330
1F
100
AcDbEntity
  8
0
  6
Continuous
 62
     7
370
    25
100
AcDbLine
 10
24.4590710239
 20
-140.4116157422
 30
0.0
 11
24.4590710239
 21
-144.209908692
 31
0.0
  0
LINE
  5
22F
330
1F
100
AcDbEntity
  8
0
  6
Continuous
 62
     7
370
    25
100
AcDbLine
 10
39.7219132023
 20
-130.4449088851
 30
0.0
 11
25.4590730505
 21
-138.6795643696
 31
0.0
  0
LINE
  5
230
330
1F
100
AcDbEntity
  8
0
  6
Continuous
 62
     7
370
    25
100
AcDbLine
 10
22.0082621412
 20
-63.6188391575
 30
0.0
 11
41.0944144563
 21
-126.9815716872
 31
0.0
  0
LINE
  5
231
330
1F
100
AcDbEntity
  8
0
  6
Continuous
 62
     7
370
    25
100
AcDbLine
 10
35.3012453155
 20
-49.5598766932
 30
0.0
 11
22.5509028272
 21
-61.587132884
 31
0.0
  0
LINE
  5
232
330
1F
100
AcDbEntity
  8
0
  6
Continuous
 62
     7
370
    25
100
AcDbLine
 10
47.4690641598
 20
-52.8369102606
 30
0.0
 11
37.3611371355
 21
-49.1366315612
 31
0.0
  0
LINE
  5
233
330
1F
100
AcDbEntity
  8
0
  6
Continuous
 62
     7
370
    25
100
AcDbLine
 10
80.6911285357
 20
-87.1331322917
 30
0.0
 11
49.7710551457
 21
-54.3541613945
 31
0.0
  0
LINE
  5
234
330
1F
100
AcDbEntity
  8
0
  6
Continuous
 62
     7
370
    25
100
AcDbLine
 10
91.4312075214
 20
-90.8290747532
 30
0.0
 11
84.8921756582
 21
-89.478284491
 31
0.0
  0
LINE
  5
235
330
1F
100
AcDbEntity
  8
0
  6
Continuous
 62
     7
370
    25
100
AcDbLine
 10
104.7263737159
 20
-103.8693007061
 30
0.0
 11
93.5317348079
 21
-92.0016471276
 31
0.0
  0
LINE
  5
236
330
1F
100
AcDbEntity
  8
0
  6
Continuous
 62
     7
370
    25
100
AcDbLine
 10
110.1177740233
 20
-104.8107635209
 30
0.0
 11
106.9086673991
 21
-104.8107635209
 31
0.0
  0
LINE
  5
237
330
1F
100
AcDbEntity
  8
0
  6
Continuous
 62
     7
370
    25
100
AcDbLine
 10
113.6616873877
 20
-106.6299159059
 30
0.0
 11
111.8385005133
 21
-105.3533073494
 31
0.0
  0
LINE
  5
238
330
1F
100
AcDbEntity
  8
0
  6
Continuous
 62
     7
370
    25
100
AcDbLine
 10
115.6046684222
 20
-106.8107638487
 30
0.0
 11
114.2352628844
 21
-106.8107638487
 31
0.0
  0
LINE
  5
239
330
1F
100
AcDbEntity
  8
0
  6
Continuous
 62
     7
370
    25
100
AcDbLine
 10
118.5179832713
 20
-104.9916114637
 30
0.0
 11
116.1782439189
 21
-106.6299159059
 31
0.0
  0
LINE
  5
23A
330
1F
100
AcDbEntity
  8
0
  6
Continuous
 62
     7
370
    25
100
AcDbLine
 10
120.4609643059
 20
-104.8107635209
 30
0.0
 11
119.091558768
 21
-104.8107635209
 31
0.0
  0
LINE
  5
23B
330
1F
100
AcDbEntity
  8
0
  6
Continuous
 62
     7
370
    25
100
AcDbLine
 10
123.374279155
 20
-106.6299159059
 30
0.0
 11
121.0345398025
 21
-104.9916114637
 31
0.0
  0
LINE
  5
23C
330
1F
100
AcDbEntity
  8
0
  6
Continuous
 62
     7
370
    25
100
AcDbLine
 10
125.3172601895
 20
-106.8107638487
 30
0.0
 11
123.9478546517
 21
-106.8107638487
 31
0.0
  0
LINE
  5
23D
330
1F
100
AcDbEntity
  8
0
  6
Continuous
 62
     7
370
    25
100
AcDbLine
 10
128.2305750387
 20
-104.9916114637
 30
0.0
 11
125.8908356862
 21
-106.6299159059
 31
0.0
  0
LINE
  5
23E
330
1F
100
AcDbEntity
  8
0
  6
Continuous
 62
     7
370
    25
100
AcDbLine
 10
130.1735560732
 20
-104.8107635209
 30
0.0
 11
128.8041505353
 21
-104.8107635209
 31
0.0
  0
LINE
  5
23F
330
1F
100
AcDbEntity
  8
0
  6
Continuous
 62
     7
370
    25
100
AcDbLine
 10
133.0868709223
 20
-106.6299159059
 30
0.0
 11
130.7471315698
 21
-104.9916114637
 31
0.0
  0
LINE
  5
240
330
1F
100
AcDbEntity
  8
0
  6
Continuous
 62
     7
370
    25
100
AcDbLine
 10
135.0298519568
 20
-106.8107638487
 30
0.0
 11
133.6604501443
 21
-106.8107638487
 31
0.0
  0
LINE
  5
241
330
1F
100
AcDbEntity
  8
0
  6
Continuous
 62
     7
370
    25
100
AcDbLine
 10
137.9431686686
 20
-104.9916114637
 30
0.0
 11
135.6034274535
 21
-106.6299159059
 31
0.0
  0
LINE
  5
242
330
1F
100
AcDbEntity
  8
0
  6
Continuous
 62
     7
370
    25
100
AcDbLine
 10
139.8861459778
 20
-104.8107635209
 30
0.0
 11
138.5167441653
 21
-104.8107635209
 31
0.0
  0
LINE
  5
243
330
1F
100
AcDbEntity
  8
0
  6
Continuous
 62
     7
370
    25
100
AcDbLine
 10
150.7910373943
 20
-112.2256744632
 30
0.0
 11
140.4597233372
 21
-104.9916114637
 31
0.0
  0
LINE
  5
244
330
1F
100
AcDbEntity
  8
0
  6
Continuous
 62
     7
370
    25
100
AcDbLine
 10
183.1014058875
 20
-113.3107621202
 30
0.0
 11
154.2324959622
 21
-113.3107621202
 31
0.0
  0
LINE
  5
245
330
1F
100
AcDbEntity
  8
0
  6
Continuous
 62
     7
370
    25
100
AcDbLine
 10
196.8741785126
 20
-104.9916114637
 30
0.0
 11
186.5428644554
 21
-112.2256744632
 31
0.0
  0
LINE
  5
246
330
1F
100
AcDbEntity
  8
0
  6
Continuous
 62
     7
370
    25
100
AcDbLine
 10
198.8171576844
 20
-104.8107635209
 30
0.0
 11
197.4477558719
 21
-104.8107635209
 31
0.0
  0
LINE
  5
247
330
1F
100
AcDbEntity
  8
0
  6
Continuous
 62
     7
370
    25
100
AcDbLine
 10
201.7304743962
 20
-106.6299159059
 30
0.0
 11
199.3907331811
 21
-104.9916114637
 31
0.0
  0
LINE
  5
248
330
1F
100
AcDbEntity
  8
0
  6
Continuous
 62
     7
370
    25
100
AcDbLine
 10
203.6734517054
 20
-106.8107638487
 30
0.0
 11
202.3040498929
 21
-106.8107638487
 31
0.0
  0
LINE
  5
249
330
1F
100
AcDbEntity
  8
0
  6
Continuous
 62
     7
370
    25
100
AcDbLine
 10
206.5867702799
 20
-104.9916114637
 30
0.0
 11
204.2470309274
 21
-106.6299159059
 31
0.0
  0
LINE
  5
24A
330
1F
100
AcDbEntity
  8
0
  6
Continuous
 62
     7
370
    25
100
AcDbLine
 10
208.5297513144
 20
-104.8107635209
 30
0.0
 11
207.1603457765
 21
-104.8107635209
 31
0.0
  0
LINE
  5
24B
330
1F
100
AcDbEntity
  8
0
  6
Continuous
 62
     7
370
    25
100
AcDbLine
 10
211.4430661635
 20
-106.6299159059
 30
0.0
 11
209.1033268111
 21
-104.9916114637
 31
0.0
  0
LINE
  5
24C
330
1F
100
AcDbEntity
  8
0
  6
Continuous
 62
     7
370
    25
100
AcDbLine
 10
213.386047198
 20
-106.8107638487
 30
0.0
 11
212.0166416602
 21
-106.8107638487
 31
0.0
  0
LINE
  5
24D
330
1F
100
AcDbEntity
  8
0
  6
Continuous
 62
     7
370
    25
100
AcDbLine
 10
216.2993620472
 20
-104.9916114637
 30
0.0
 11
213.9596226947
 21
-106.6299159059
 31
0.0
  0
LINE
  5
24E
330
1F
100
AcDbEntity
  8
0
  6
Continuous
 62
     7
370
    25
100
AcDbLine
 10
218.2423430817
 20
-104.8107635209
 30
0.0
 11
216.8729375438
 21
-104.8107635209
 31
0.0
  0
LINE
  5
24F
330
1F
100
AcDbEntity
  8
0
  6
Continuous
 62
     7
370
    25
100
AcDbLine
 10
221.1556579308
 20
-106.6299159059
 30
0.0
 11
218.8159185784
 21
-104.9916114637
 31
0.0
  0
LINE
  5
250
330
1F
100
AcDbEntity
  8
0
  6
Continuous
 62
     7
370
    25
100
AcDbLine
 10
223.0986389653
 20
-106.8107638487
 30
0.0
 11
221.7292334275
 21
-106.8107638487
 31
0.0
  0
LINE
  5
251
330
1F
100
AcDbEntity
  8
0
  6
Continuous
 62
     7
370
    25
100
AcDbLine
 10
225.4954013364
 20
-105.3533073494
 30
0.0
 11
223.672214462
 21
-106.6299159059
 31
0.0
  0
LINE
  5
252
330
1F
100
AcDbEntity
  8
0
  6
Continuous
 62
     7
370
    25
100
AcDbLine
 10
230.4252344506
 20
-104.8107635209
 30
0.0
 11
227.2161278264
 21
-104.8107635209
 31
0.0
  0
LINE
  5
253
330
1F
100
AcDbEntity
  8
0
  6
Continuous
 62
     7
370
    25
100
AcDbLine
 10
243.8021670418
 20
-92.0016471276
 30
0.0
 11
232.6075281338
 21
-103.8693007061
 31
0.0
  0
LINE
  5
254
330
1F
100
AcDbEntity
  8
0
  6
Continuous
 62
     7
370
    25
100
AcDbLine
 10
252.4417261915
 20
-89.478284491
 30
0.0
 11
245.9026943283
 21
-90.8290747532
 31
0.0
  0
LINE
  5
255
330
1F
100
AcDbEntity
  8
0
  6
Continuous
 62
     7
370
    25
100
AcDbLine
 10
287.562846704
 20
-54.3541613945
 30
0.0
 11
256.642773314
 21
-87.1331322917
 31
0.0
  0
LINE
  5
256
330
1F
100
AcDbEntity
  8
0
  6
Continuous
 62
     7
370
    25
100
AcDbLine
 10
299.9727647142
 20
-49.1366315612
 30
0.0
 11
289.8648376899
 21
-52.8369102606
 31
0.0
  0
LINE
  5
257
330
1F
100
AcDbEntity
  8
0
  6
Continuous
 62
     7
370
    25
100
AcDbLine
 10
314.7829990225
 20
-61.587132884
 30
0.0
 11
302.0326565342
 21
-49.5598766932
 31
0.0
  0
LINE
  5
258
330
1F
100
AcDbEntity
  8
0
  6
Continuous
 62
     7
370
    25
100
AcDbLine
 10
293.278984292
 20
-136.809913812
 30
0.0
 11
315.3256397085
 21
-63.6188391575
 31
0.0
  0
LINE
  5
259
330
1F
100
AcDbEntity
  8
0
  6
Continuous
 62
     7
370
    25
100
AcDbLine
 10
297.1583078937
 20
-139.7280137965
 30
0.0
 11
294.2022006349
 21
-138.6520829031
 31
0.0
  0
LINE
  5
25A
330
1F
100
AcDbEntity
  8
0
  6
Continuous
 62
     7
370
    25
100
AcDbLine
 10
298.5942582922
 20
-142.1129707226
 30
0.0
 11
298.4438757734
 21
-141.2601027617
 31
0.0
  0
LINE
  5
25B
330
1F
100
AcDbEntity
  8
0
  6
Continuous
 62
     7
370
    25
100
AcDbLine
 10
307.2429220514
 20
-146.3250018636
 30
0.0
 11
299.879841073
 21
-143.6450596878
 31
0.0
  0
LINE
  5
25C
330
1F
100
AcDbEntity
  8
0
  6
Continuous
 62
     7
370
    25
100
AcDbLine
 10
309.8748396473
 20
-172.5377518663
 30
0.0
 11
309.8748396473
 21
-150.0837732086
 31
0.0
  0
LINE
  5
25D
330
1F
100
AcDbEntity
  8
0
  6
Continuous
 62
     7
370
    25
100
AcDbLine
 10
299.879841073
 20
-178.9764653871
 30
0.0
 11
307.2429220514
 21
-176.2965232113
 31
0.0
  0
LINE
  5
25E
330
1F
100
AcDbEntity
  8
0
  6
Continuous
 62
     7
370
    25
100
AcDbLine
 10
298.4438757734
 20
-181.3614223132
 30
0.0
 11
298.5942582922
 21
-180.5085543522
 31
0.0
  0
LINE
  5
25F
330
1F
100
AcDbEntity
  8
0
  6
Continuous
 62
     7
370
    25
100
AcDbLine
 10
294.2022006349
 20
-183.9694421718
 30
0.0
 11
297.1583078937
 21
-182.8935112783
 31
0.0
  0
LINE
  5
260
330
1F
100
AcDbEntity
  8
0
  6
Continuous
 62
     7
370
    25
100
AcDbLine
 10
315.3256397085
 20
-259.0026859173
 30
0.0
 11
293.278984292
 21
-185.8116112629
 31
0.0
  0
LINE
  5
261
330
1F
100
AcDbEntity
  8
0
  6
Continuous
 62
     7
370
    25
100
AcDbLine
 10
109.4169500606
 20
-186.8107620606
 30
0.0
 11
139.9169504033
 21
-186.8107620606
 31
0.0
  0
LINE
  5
262
330
1F
100
AcDbEntity
  8
0
  6
Continuous
 62
     7
370
    25
100
AcDbLine
 10
139.9169504033
 20
-183.8107634315
 30
0.0
 11
109.4169500606
 21
-183.8107634315
 31
0.0
  0
LINE
  5
263
330
1F
100
AcDbEntity
  8
0
  6
Continuous
 62
     7
370
    25
100
AcDbLine
 10
227.9169517891
 20
-135.8107630143
 30
0.0
 11
197.4169514464
 21
-135.8107630143
 31
0.0
  0
LINE
  5
264
330
1F
100
AcDbEntity
  8
0
  6
Continuous
 62
     7
370
    25
100
AcDbLine
 10
197.4169514464
 20
-138.8107616434
 30
0.0
 11
227.9169517891
 21
-138.8107616434
 31
0.0
  0
LINE
  5
265
330
1F
100
AcDbEntity
  8
0
  6
Continuous
 62
     7
370
    25
100
AcDbLine
 10
134.6669490771
 20
-124.8107630739
 30
0.0
 11
104.6669478851
 21
-124.8107630739
 31
0.0
  0
LINE
  5
266
330
1F
100
AcDbEntity
  8
0
  6
Continuous
 62
     7
370
    25
100
AcDbLine
 10
104.6669478851
 20
-121.8107607195
 30
0.0
 11
134.6669490771
 21
-121.8107607195
 31
0.0
  0
LINE
  5
267
330
1F
100
AcDbEntity
  8
0
  6
Continuous
 62
     7
370
    25
100
AcDbLine
 10
232.6669539647
 20
-124.8107630739
 30
0.0
 11
202.6669527726
 21
-124.8107630739
 31
0.0
  0
LINE
  5
268
330
1F
100
AcDbEntity
  8
0
  6
Continuous
 62
     7
370
    25
100
AcDbLine
 10
202.6669527726
 20
-121.8107607195
 30
0.0
 11
232.6669539647
 21
-121.8107607195
 31
0.0
  0
LINE
  5
269
330
1F
100
AcDbEntity
  8
0
  6
Continuous
 62
     7
370
    25
100
AcDbLine
 10
202.6669527726
 20
-197.810762001
 30
0.0
 11
232.6669539647
 21
-197.810762001
 31
0.0
  0
LINE
  5
26A
330
1F
100
AcDbEntity
  8
0
  6
Continuous
 62
     7
370
    25
100
AcDbLine
 10
232.6669539647
 20
-200.8107643554
 30
0.0
 11
202.6669527726
 21
-200.8107643554
 31
0.0
  0
LINE
  5
26B
330
1F
100
AcDbEntity
  8
0
  6
Continuous
 62
     7
370
    25
100
AcDbLine
 10
134.6669490771
 20
-200.8107643554
 30
0.0
 11
104.6669478851
 21
-200.8107643554
 31
0.0
  0
LINE
  5
26C
330
1F
100
AcDbEntity
  8
0
  6
Continuous
 62
     7
370
    25
100
AcDbLine
 10
104.6669478851
 20
-197.810762001
 30
0.0
 11
134.6669490771
 21
-197.810762001
 31
0.0
  0
LINE
  5
271
330
1F
100
AcDbEntity
  8
0
  6
Continuous
 62
     7
370
    25
100
AcDbLine
 10
109.4169500606
 20
-138.8107616434
 30
0.0
 11
139.9169504033
 21
-138.8107616434
 31
0.0
  0
LINE
  5
272
330
1F
100
AcDbEntity
  8
0
  6
Continuous
 62
     7
370
    25
100
AcDbLine
 10
139.9169504033
 20
-135.8107630143
 30
0.0
 11
109.4169500606
 21
-135.8107630143
 31
0.0
  0
LINE
  5
273
330
1F
100
AcDbEntity
  8
0
  6
Continuous
 62
     7
370
    25
100
AcDbLine
 10
227.9169517891
 20
-183.8107634315
 30
0.0
 11
197.4169514464
 21
-183.8107634315
 31
0.0
  0
LINE
  5
274
330
1F
100
AcDbEntity
  8
0
  6
Continuous
 62
     7
370
    25
100
AcDbLine
 10
197.4169514464
 20
-186.8107620606
 30
0.0
 11
227.9169517891
 21
-186.8107620606
 31
0.0
  0
LINE
  5
275
330
1F
100
AcDbEntity
  8
0
  6
Continuous
 62
     7
370
    25
100
AcDbLine
 10
302.0326565342
 20
-273.0616483817
 30
0.0
 11
314.7829990225
 21
-261.0343921909
 31
0.0
  0
LINE
  5
276
330
1F
100
AcDbEntity
  8
0
  6
Continuous
 62
     7
370
    25
100
AcDbLine
 10
289.8648376899
 20
-269.7846148142
 30
0.0
 11
299.9727647142
 21
-273.4848935136
 31
0.0
  0
LINE
  5
277
330
1F
100
AcDbEntity
  8
0
  6
Continuous
 62
     7
370
    25
100
AcDbLine
 10
256.642773314
 20
-235.4883927831
 30
0.0
 11
287.562846704
 21
-268.2673636803
 31
0.0
  0
LINE
  5
278
330
1F
100
AcDbEntity
  8
0
  6
Continuous
 62
     7
370
    25
100
AcDbLine
 10
245.9026943283
 20
-231.7924503216
 30
0.0
 11
252.4417261915
 21
-233.1432405839
 31
0.0
  0
LINE
  5
279
330
1F
100
AcDbEntity
  8
0
  6
Continuous
 62
     7
370
    25
100
AcDbLine
 10
232.6075281338
 20
-218.7522243688
 30
0.0
 11
243.8021670418
 21
-230.6198779473
 31
0.0
  0
LINE
  5
27A
330
1F
100
AcDbEntity
  8
0
  6
Continuous
 62
     7
370
    25
100
AcDbLine
 10
227.2161278264
 20
-217.810761554
 30
0.0
 11
230.4252344506
 21
-217.810761554
 31
0.0
  0
LINE
  5
27B
330
1F
100
AcDbEntity
  8
0
  6
Continuous
 62
     7
370
    25
100
AcDbLine
 10
223.672214462
 20
-215.991609169
 30
0.0
 11
225.4954013364
 21
-217.2682177255
 31
0.0
  0
LINE
  5
27C
330
1F
100
AcDbEntity
  8
0
  6
Continuous
 62
     7
370
    25
100
AcDbLine
 10
221.7292334275
 20
-215.8107612261
 30
0.0
 11
223.0986389653
 21
-215.8107612261
 31
0.0
  0
LINE
  5
27D
330
1F
100
AcDbEntity
  8
0
  6
Continuous
 62
     7
370
    25
100
AcDbLine
 10
218.8159185784
 20
-217.6299136111
 30
0.0
 11
221.1556579308
 21
-215.991609169
 31
0.0
  0
LINE
  5
27E
330
1F
100
AcDbEntity
  8
0
  6
Continuous
 62
     7
370
    25
100
AcDbLine
 10
216.8729375438
 20
-217.810761554
 30
0.0
 11
218.2423430817
 21
-217.810761554
 31
0.0
  0
LINE
  5
281
330
1F
100
AcDbEntity
  8
0
  6
Continuous
 62
     7
370
    25
100
AcDbLine
 10
164.4169500649
 20
-191.0607632574
 30
0.0
 11
172.9169500649
 21
-191.0607632574
 31
0.0
  0
LINE
  5
285
330
1F
100
AcDbEntity
  8
0
  6
Continuous
 62
     7
370
    25
100
AcDbLine
 10
164.4169500649
 20
-139.5607632574
 30
0.0
 11
172.9169500649
 21
-139.5607632574
 31
0.0
  0
LINE
  5
288
330
1F
100
AcDbEntity
  8
0
  6
Continuous
 62
     7
370
    25
100
AcDbLine
 10
172.9169500649
 20
-183.0607632574
 30
0.0
 11
164.4169500649
 21
-183.0607632574
 31
0.0
  0
LINE
  5
28A
330
1F
100
AcDbEntity
  8
0
  6
Continuous
 62
     7
370
    25
100
AcDbLine
 10
172.9169500649
 20
-131.5607632574
 30
0.0
 11
164.4169500649
 21
-131.5607632574
 31
0.0
  0
ARC
  5
28B
330
1F
100
AcDbEntity
  8
0
  6
Continuous
 62
     7
370
    25
100
AcDbCircle
 10
285.7400629824
 20
-208.0412065218
 30
0.0
 40
7.999999999999698
100
AcDbArc
 50
188.3284570442
 51
223.3284647089
  0
ARC
  5
28C
330
1F
100
AcDbEntity
  8
0
  6
Continuous
 62
     7
370
    25
100
AcDbCircle
 10
290.131552466
 20
-222.169453102
 30
0.0
 40
1.500000000000104
100
AcDbArc
 50
223.3286904963
 51
16.7632568555
  0
ARC
  5
28D
330
1F
100
AcDbEntity
  8
0
  6
Continuous
 62
     7
370
    25
100
AcDbCircle
 10
279.8029035353
 20
-187.8801391589
 30
0.0
 40
1.500000000000086
100
AcDbArc
 50
16.7634613107
 51
109.9997906154
  0
ARC
  5
28E
330
1F
100
AcDbEntity
  8
0
  6
Continuous
 62
     7
370
    25
100
AcDbCircle
 10
270.4391086021
 20
-191.8203705494
 30
0.0
 40
1.999999999999995
100
AcDbArc
 50
109.9998737033
 51
223.3283870878
  0
ARC
  5
28F
330
1F
100
AcDbEntity
  8
0
  6
Continuous
 62
     7
370
    25
100
AcDbCircle
 10
272.8994541093
 20
-203.1726932886
 30
0.0
 40
3.99999999999955
100
AcDbArc
 50
8.3283216932
 51
43.3282806055
  0
ARC
  5
290
330
1F
100
AcDbEntity
  8
0
  6
Continuous
 62
     7
370
    25
100
AcDbCircle
 10
270.4391086021
 20
-130.8011545255
 30
0.0
 40
1.999999999999976
100
AcDbArc
 50
136.6716129093
 51
250.0001262989
  0
ARC
  5
291
330
1F
100
AcDbEntity
  8
0
  6
Continuous
 62
     7
370
    25
100
AcDbCircle
 10
279.8029035353
 20
-134.741385916
 30
0.0
 40
1.500000000000033
100
AcDbArc
 50
250.0002093846
 51
343.2365386893
  0
ARC
  5
292
330
1F
100
AcDbEntity
  8
0
  6
Continuous
 62
     7
370
    25
100
AcDbCircle
 10
290.131552466
 20
-100.4520719728
 30
0.0
 40
1.500000000000043
100
AcDbArc
 50
343.2367431386
 51
136.6713095062
  0
ARC
  5
293
330
1F
100
AcDbEntity
  8
0
  6
Continuous
 62
     7
370
    25
100
AcDbCircle
 10
285.7400629824
 20
-114.5803185531
 30
0.0
 40
8.000000000000046
100
AcDbArc
 50
136.6715352911
 51
171.6715429558
  0
ARC
  5
294
330
1F
100
AcDbEntity
  8
0
  6
Continuous
 62
     7
370
    25
100
AcDbCircle
 10
272.8994541093
 20
-119.4488317862
 30
0.0
 40
3.999999999999955
100
AcDbArc
 50
316.6717193942
 51
351.6716783051
  0
ARC
  5
295
330
1F
100
AcDbEntity
  8
0
  6
Continuous
 62
     7
370
    25
100
AcDbCircle
 10
70.9128322054
 20
-187.5607632527
 30
0.0
 40
2.00000000000003
100
AcDbArc
 50
316.6715942689
 51
90.0000603701
  0
ARC
  5
296
330
1F
100
AcDbEntity
  8
0
  6
Continuous
 62
     7
370
    25
100
AcDbCircle
 10
58.8925480025
 20
-188.5607632527
 30
0.0
 40
3.0
100
AcDbArc
 50
90.0000067162
 51
163.2366196835
  0
ARC
  5
297
330
1F
100
AcDbEntity
  8
0
  6
Continuous
 62
     7
370
    25
100
AcDbCircle
 10
47.2023493837
 20
-222.169453102
 30
0.0
 40
1.500000000000011
100
AcDbArc
 50
163.2367431445
 51
316.6713095037
  0
ARC
  5
298
330
1F
100
AcDbEntity
  8
0
  6
Continuous
 62
     7
370
    25
100
AcDbCircle
 10
51.5938388673
 20
-208.0412065218
 30
0.0
 40
7.999999999999735
100
AcDbArc
 50
316.6715352911
 51
351.6715429558
  0
ARC
  5
299
330
1F
100
AcDbEntity
  8
0
  6
Continuous
 62
     7
370
    25
100
AcDbCircle
 10
64.4344477404
 20
-203.1726932886
 30
0.0
 40
3.999999999999825
100
AcDbArc
 50
136.6717193945
 51
171.6716783068
  0
ARC
  5
29A
330
1F
100
AcDbEntity
  8
0
  6
Continuous
 62
     7
370
    25
100
AcDbCircle
 10
64.4344477404
 20
-119.4488317862
 30
0.0
 40
3.999999999999977
100
AcDbArc
 50
188.3283216949
 51
223.3282806058
  0
ARC
  5
29B
330
1F
100
AcDbEntity
  8
0
  6
Continuous
 62
     7
370
    25
100
AcDbCircle
 10
51.5938388673
 20
-114.5803185531
 30
0.0
 40
7.999999999999838
100
AcDbArc
 50
8.3284570442
 51
43.3284647089
  0
ARC
  5
29C
330
1F
100
AcDbEntity
  8
0
  6
Continuous
 62
     7
370
    25
100
AcDbCircle
 10
47.2023493837
 20
-100.4520719728
 30
0.0
 40
1.500000000000015
100
AcDbArc
 50
43.3286904938
 51
196.7632568614
  0
ARC
  5
29D
330
1F
100
AcDbEntity
  8
0
  6
Continuous
 62
     7
370
    25
100
AcDbCircle
 10
58.8925480025
 20
-134.0607618222
 30
0.0
 40
2.999999999999992
100
AcDbArc
 50
196.7633803145
 51
269.9999932832
  0
ARC
  5
29E
330
1F
100
AcDbEntity
  8
0
  6
Continuous
 62
     7
370
    25
100
AcDbCircle
 10
70.9128322055
 20
-135.0607618222
 30
0.0
 40
2.000000000000036
100
AcDbArc
 50
269.9999396272
 51
43.328405735
  0
ARC
  5
29F
330
1F
100
AcDbEntity
  8
0
  6
Continuous
 62
     7
370
    25
100
AcDbCircle
 10
264.0944748955
 20
-173.5607625449
 30
0.0
 40
2.000000000000083
100
AcDbArc
 50
179.9999906091
 51
270.0001161128
  0
ARC
  5
2A0
330
1F
100
AcDbEntity
  8
0
  6
Continuous
 62
     7
370
    25
100
AcDbCircle
 10
288.5944730477
 20
-173.5607625449
 30
0.0
 40
2.000000000000083
100
AcDbArc
 50
270.0000973312
 51
0.0000093909
  0
ARC
  5
2A1
330
1F
100
AcDbEntity
  8
0
  6
Continuous
 62
     7
370
    25
100
AcDbCircle
 10
288.5944730477
 20
-149.06076253
 30
0.0
 40
2.000000000000027
100
AcDbArc
 50
359.9999906091
 51
89.9999026688
  0
ARC
  5
2A2
330
1F
100
AcDbEntity
  8
0
  6
Continuous
 62
     7
370
    25
100
AcDbCircle
 10
264.0944748955
 20
-149.06076253
 30
0.0
 40
2.000000000000083
100
AcDbArc
 50
89.9998838872
 51
180.0000093909
  0
ARC
  5
2A3
330
1F
100
AcDbEntity
  8
0
  6
Continuous
 62
     7
370
    25
100
AcDbCircle
 10
213.3860462766
 20
-216.8107612261
 30
0.0
 40
1.000000000000254
100
AcDbArc
 50
55.0000012797
 51
89.9999472102
  0
ARC
  5
2A4
330
1F
100
AcDbEntity
  8
0
  6
Continuous
 62
     7
370
    25
100
AcDbCircle
 10
212.0166425816
 20
-216.8107612261
 30
0.0
 40
0.9999999999997278
100
AcDbArc
 50
90.0000527898
 51
124.9999987203
  0
ARC
  5
2A5
330
1F
100
AcDbEntity
  8
0
  6
Continuous
 62
     7
370
    25
100
AcDbCircle
 10
208.529750393
 20
-216.810761554
 30
0.0
 40
1.000000000000533
100
AcDbArc
 50
270.0000527898
 51
304.9999987203
  0
ARC
  5
2A6
330
1F
100
AcDbEntity
  8
0
  6
Continuous
 62
     7
370
    25
100
AcDbCircle
 10
207.160346698
 20
-216.810761554
 30
0.0
 40
1.000000000000377
100
AcDbArc
 50
235.0000012797
 51
269.9999472045
  0
ARC
  5
2A7
330
1F
100
AcDbEntity
  8
0
  6
Continuous
 62
     7
370
    25
100
AcDbCircle
 10
203.6734545093
 20
-216.8107612261
 30
0.0
 40
0.9999999999994982
100
AcDbArc
 50
55.0000012793
 51
90.0001606539
  0
ARC
  5
2A8
330
1F
100
AcDbEntity
  8
0
  6
Continuous
 62
     7
370
    25
100
AcDbCircle
 10
202.3040508143
 20
-216.8107612261
 30
0.0
 40
0.9999999999994581
100
AcDbArc
 50
90.0000527898
 51
124.9999987203
  0
ARC
  5
2A9
330
1F
100
AcDbEntity
  8
0
  6
Continuous
 62
     7
370
    25
100
AcDbCircle
 10
198.817156763
 20
-216.810761554
 30
0.0
 40
1.000000000000119
100
AcDbArc
 50
270.0000527898
 51
304.9999987203
  0
ARC
  5
2AA
330
1F
100
AcDbEntity
  8
0
  6
Continuous
 62
     7
370
    25
100
AcDbCircle
 10
197.4477549307
 20
-216.810761554
 30
0.0
 40
1.00000000000001
100
AcDbArc
 50
235.0000012797
 51
270.0000539293
  0
ARC
  5
2AB
330
1F
100
AcDbEntity
  8
0
  6
Continuous
 62
     7
370
    25
100
AcDbCircle
 10
183.1014059478
 20
-215.3107629547
 30
0.0
 40
6.000000000000143
100
AcDbArc
 50
55.000001288
 51
90.0000005757
  0
ARC
  5
2AC
330
1F
100
AcDbEntity
  8
0
  6
Continuous
 62
     7
370
    25
100
AcDbCircle
 10
154.2324959019
 20
-215.3107629547
 30
0.0
 40
5.999999999999704
100
AcDbArc
 50
89.9999994243
 51
124.999998712
  0
ARC
  5
2AD
330
1F
100
AcDbEntity
  8
0
  6
Continuous
 62
     7
370
    25
100
AcDbCircle
 10
139.8861469191
 20
-216.810761554
 30
0.0
 40
1.000000000000198
100
AcDbArc
 50
269.9999460649
 51
304.9999987203
  0
ARC
  5
2AE
330
1F
100
AcDbEntity
  8
0
  6
Continuous
 62
     7
370
    25
100
AcDbCircle
 10
138.5167450867
 20
-216.810761554
 30
0.0
 40
1.000000000000016
100
AcDbArc
 50
235.0000012797
 51
269.9999472102
  0
ARC
  5
2AF
330
1F
100
AcDbEntity
  8
0
  6
Continuous
 62
     7
370
    25
100
AcDbCircle
 10
135.0298510354
 20
-216.8107612261
 30
0.0
 40
0.9999999999999699
100
AcDbArc
 50
55.0000012797
 51
89.9999472102
  0
ARC
  5
2B0
330
1F
100
AcDbEntity
  8
0
  6
Continuous
 62
     7
370
    25
100
AcDbCircle
 10
133.6604473404
 20
-216.8107612261
 30
0.0
 40
0.9999999999995256
100
AcDbArc
 50
89.9998393461
 51
124.9999987207
  0
ARC
  5
2B1
330
1F
100
AcDbEntity
  8
0
  6
Continuous
 62
     7
370
    25
100
AcDbCircle
 10
130.1735551517
 20
-216.810761554
 30
0.0
 40
1.000000000000079
100
AcDbArc
 50
270.0000527955
 51
304.9999987203
  0
ARC
  5
2B2
330
1F
100
AcDbEntity
  8
0
  6
Continuous
 62
     7
370
    25
100
AcDbCircle
 10
128.8041514568
 20
-216.810761554
 30
0.0
 40
0.9999999999998442
100
AcDbArc
 50
235.0000012797
 51
269.9999472045
  0
ARC
  5
2B3
330
1F
100
AcDbEntity
  8
0
  6
Continuous
 62
     7
370
    25
100
AcDbCircle
 10
125.3172592681
 20
-216.8107612261
 30
0.0
 40
1.00000000000001
100
AcDbArc
 50
55.0000012797
 51
89.9999472102
  0
ARC
  5
2B4
330
1F
100
AcDbEntity
  8
0
  6
Continuous
 62
     7
370
    25
100
AcDbCircle
 10
123.9478555731
 20
-216.8107612261
 30
0.0
 40
0.9999999999994297
100
AcDbArc
 50
90.0000527898
 51
124.9999987203
  0
ARC
  5
2B5
330
1F
100
AcDbEntity
  8
0
  6
Continuous
 62
     7
370
    25
100
AcDbCircle
 10
120.4609633844
 20
-216.810761554
 30
0.0
 40
1.000000000000205
100
AcDbArc
 50
270.0000527955
 51
304.9999987203
  0
ARC
  5
2B6
330
1F
100
AcDbEntity
  8
0
  6
Continuous
 62
     7
370
    25
100
AcDbCircle
 10
119.0915596894
 20
-216.810761554
 30
0.0
 40
1.000000000000103
100
AcDbArc
 50
235.0000012797
 51
269.9999472102
  0
ARC
  5
2B7
330
1F
100
AcDbEntity
  8
0
  6
Continuous
 62
     7
370
    25
100
AcDbCircle
 10
115.6046675008
 20
-216.8107612261
 30
0.0
 40
0.9999999999997825
100
AcDbArc
 50
55.0000012797
 51
89.9999472102
  0
ARC
  5
2B8
330
1F
100
AcDbEntity
  8
0
  6
Continuous
 62
     7
370
    25
100
AcDbCircle
 10
114.2352638058
 20
-216.8107612261
 30
0.0
 40
0.9999999999997139
100
AcDbArc
 50
90.0000527898
 51
124.9999987203
  0
ARC
  5
2B9
330
1F
100
AcDbEntity
  8
0
  6
Continuous
 62
     7
370
    25
100
AcDbCircle
 10
110.1177712594
 20
-214.810761554
 30
0.0
 40
3.000000000000051
100
AcDbArc
 50
270.0000527862
 51
304.9999987137
  0
ARC
  5
2BA
330
1F
100
AcDbEntity
  8
0
  6
Continuous
 62
     7
370
    25
100
AcDbCircle
 10
106.908671738
 20
-220.810761554
 30
0.0
 40
3.000000000000068
100
AcDbArc
 50
90.0000828664
 51
136.6715956369
  0
ARC
  5
2BB
330
1F
100
AcDbEntity
  8
0
  6
Continuous
 62
     7
370
    25
100
AcDbCircle
 10
90.6220100485
 20
-227.8751554068
 30
0.0
 40
3.999999999999694
100
AcDbArc
 50
281.6714521312
 51
316.6714717086
  0
ARC
  5
2BC
330
1F
100
AcDbEntity
  8
0
  6
Continuous
 62
     7
370
    25
100
AcDbCircle
 10
86.5105885866
 20
-240.9778266989
 30
0.0
 40
8.000000000000123
100
AcDbArc
 50
101.6715836414
 51
136.6715816372
  0
ARC
  5
2BD
330
1F
100
AcDbEntity
  8
0
  6
Continuous
 62
     7
370
    25
100
AcDbCircle
 10
45.4064637666
 20
-264.1502843643
 30
0.0
 40
6.000000000001008
100
AcDbArc
 50
290.1065306875
 51
316.6715307146
  0
ARC
  5
2BE
330
1F
100
AcDbEntity
  8
0
  6
Continuous
 62
     7
370
    25
100
AcDbCircle
 10
36.6736037559
 20
-271.6067833326
 30
0.0
 40
1.99999999999985
100
AcDbArc
 50
226.6715831553
 51
290.1065281009
  0
ARC
  5
2BF
330
1F
100
AcDbEntity
  8
0
  6
Continuous
 62
     7
370
    25
100
AcDbCircle
 10
23.9232678853
 20
-259.5795333842
 30
0.0
 40
2.000000000000145
100
AcDbArc
 50
163.2363892446
 51
226.6713225356
  0
ARC
  5
2C0
330
1F
100
AcDbEntity
  8
0
  6
Continuous
 62
     7
370
    25
100
AcDbCircle
 10
38.22190431
 20
-194.7746872672
 30
0.0
 40
3.000000000000032
100
AcDbArc
 50
343.2364905687
 51
59.9998038964
  0
ARC
  5
2C1
330
1F
100
AcDbEntity
  8
0
  6
Continuous
 62
     7
370
    25
100
AcDbCircle
 10
26.4590710239
 20
-182.2099087276
 30
0.0
 40
2.000000000000038
100
AcDbArc
 50
180.0000173356
 51
240.0000670394
  0
ARC
  5
2C2
330
1F
100
AcDbEntity
  8
0
  6
Continuous
 62
     7
370
    25
100
AcDbCircle
 10
26.4590710239
 20
-178.411616988
 30
0.0
 40
2.000000000000084
100
AcDbArc
 50
119.9999329606
 51
179.9999826644
  0
ARC
  5
2C3
330
1F
100
AcDbEntity
  8
0
  6
Continuous
 62
     7
370
    25
100
AcDbCircle
 10
29.4590703087
 20
-172.0607613661
 30
0.0
 40
2.000000000000013
100
AcDbArc
 50
299.9999329606
 51
359.9999559846
  0
ARC
  5
2C4
330
1F
100
AcDbEntity
  8
0
  6
Continuous
 62
     7
370
    25
100
AcDbCircle
 10
29.4590703087
 20
-150.5607637087
 30
0.0
 40
1.999999999999845
100
AcDbArc
 50
0.0000440125
 51
60.0000670394
  0
ARC
  5
2C5
330
1F
100
AcDbEntity
  8
0
  6
Continuous
 62
     7
370
    25
100
AcDbCircle
 10
26.4590710239
 20
-144.2099080869
 30
0.0
 40
2.000000000000052
100
AcDbArc
 50
180.0000173356
 51
240.0000670394
  0
ARC
  5
2C6
330
1F
100
AcDbEntity
  8
0
  6
Continuous
 62
     7
370
    25
100
AcDbCircle
 10
26.4590710239
 20
-140.4116163472
 30
0.0
 40
2.000000000000102
100
AcDbArc
 50
119.9999329606
 51
179.9999826673
  0
ARC
  5
2C7
330
1F
100
AcDbEntity
  8
0
  6
Continuous
 62
     7
370
    25
100
AcDbCircle
 10
38.22190431
 20
-127.8468378077
 30
0.0
 40
3.00000000000008
100
AcDbArc
 50
300.0001961036
 51
16.7635094313
  0
ARC
  5
2C8
330
1F
100
AcDbEntity
  8
0
  6
Continuous
 62
     7
370
    25
100
AcDbCircle
 10
23.9232678853
 20
-63.0419916906
 30
0.0
 40
2.000000000000049
100
AcDbArc
 50
133.3286774653
 51
196.7636107531
  0
ARC
  5
2C9
330
1F
100
AcDbEntity
  8
0
  6
Continuous
 62
     7
370
    25
100
AcDbCircle
 10
36.673603756
 20
-51.0147417422
 30
0.0
 40
2.000000000000006
100
AcDbArc
 50
69.8934719014
 51
133.3284168477
  0
ARC
  5
2CA
330
1F
100
AcDbEntity
  8
0
  6
Continuous
 62
     7
370
    25
100
AcDbCircle
 10
45.4064637666
 20
-58.4712407105
 30
0.0
 40
6.000000000000109
100
AcDbArc
 50
43.3284692854
 51
69.8934693125
  0
ARC
  5
2CB
330
1F
100
AcDbEntity
  8
0
  6
Continuous
 62
     7
370
    25
100
AcDbCircle
 10
86.5105885867
 20
-81.643698376
 30
0.0
 40
7.999999999999788
100
AcDbArc
 50
223.3284183615
 51
258.3284163577
  0
ARC
  5
2CC
330
1F
100
AcDbEntity
  8
0
  6
Continuous
 62
     7
370
    25
100
AcDbCircle
 10
90.6220100484
 20
-94.746369668
 30
0.0
 40
4.000000000000042
100
AcDbArc
 50
43.3285282889
 51
78.3285478671
  0
ARC
  5
2CD
330
1F
100
AcDbEntity
  8
0
  6
Continuous
 62
     7
370
    25
100
AcDbCircle
 10
106.908671738
 20
-101.8107635209
 30
0.0
 40
3.000000000000025
100
AcDbArc
 50
223.3284043631
 51
269.9999171336
  0
ARC
  5
2CE
330
1F
100
AcDbEntity
  8
0
  6
Continuous
 62
     7
370
    25
100
AcDbCircle
 10
110.1177712594
 20
-107.8107635209
 30
0.0
 40
2.999999999999901
100
AcDbArc
 50
55.0000012863
 51
89.9999472138
  0
ARC
  5
2CF
330
1F
100
AcDbEntity
  8
0
  6
Continuous
 62
     7
370
    25
100
AcDbCircle
 10
114.2352638056
 20
-105.8107638487
 30
0.0
 40
1.00000000000014
100
AcDbArc
 50
235.0000012897
 51
269.9999472184
  0
ARC
  5
2D0
330
1F
100
AcDbEntity
  8
0
  6
Continuous
 62
     7
370
    25
100
AcDbCircle
 10
115.604667501
 20
-105.8107638487
 30
0.0
 40
1.000000000000008
100
AcDbArc
 50
270.0000527816
 51
304.9999987103
  0
ARC
  5
2D1
330
1F
100
AcDbEntity
  8
0
  6
Continuous
 62
     7
370
    25
100
AcDbCircle
 10
119.0915596892
 20
-105.8107635209
 30
0.0
 40
1.000000000000044
100
AcDbArc
 50
90.0000527816
 51
124.9999987103
  0
ARC
  5
2D2
330
1F
100
AcDbEntity
  8
0
  6
Continuous
 62
     7
370
    25
100
AcDbCircle
 10
120.4609633846
 20
-105.8107635209
 30
0.0
 40
1.0
100
AcDbArc
 50
55.0000012897
 51
89.9999472127
  0
ARC
  5
2D3
330
1F
100
AcDbEntity
  8
0
  6
Continuous
 62
     7
370
    25
100
AcDbCircle
 10
123.9478555729
 20
-105.8107638487
 30
0.0
 40
1.000000000000055
100
AcDbArc
 50
235.0000012897
 51
269.9999472184
  0
ARC
  5
2D4
330
1F
100
AcDbEntity
  8
0
  6
Continuous
 62
     7
370
    25
100
AcDbCircle
 10
125.3172592683
 20
-105.8107638487
 30
0.0
 40
1.000000000000161
100
AcDbArc
 50
270.0000527816
 51
304.9999987103
  0
ARC
  5
2D5
330
1F
100
AcDbEntity
  8
0
  6
Continuous
 62
     7
370
    25
100
AcDbCircle
 10
128.8041514566
 20
-105.8107635209
 30
0.0
 40
0.9999999999997058
100
AcDbArc
 50
90.0000527873
 51
124.9999987103
  0
ARC
  5
2D6
330
1F
100
AcDbEntity
  8
0
  6
Continuous
 62
     7
370
    25
100
AcDbCircle
 10
130.1735551519
 20
-105.8107635209
 30
0.0
 40
0.9999999999996989
100
AcDbArc
 50
55.0000012897
 51
89.9999472127
  0
ARC
  5
2D7
330
1F
100
AcDbEntity
  8
0
  6
Continuous
 62
     7
370
    25
100
AcDbCircle
 10
133.6604473402
 20
-105.8107638487
 30
0.0
 40
0.9999999999999524
100
AcDbArc
 50
235.0000012893
 51
270.0001606621
  0
ARC
  5
2D8
330
1F
100
AcDbEntity
  8
0
  6
Continuous
 62
     7
370
    25
100
AcDbCircle
 10
135.0298510356
 20
-105.8107638487
 30
0.0
 40
1.000000000000365
100
AcDbArc
 50
270.0000527816
 51
304.9999987103
  0
ARC
  5
2D9
330
1F
100
AcDbEntity
  8
0
  6
Continuous
 62
     7
370
    25
100
AcDbCircle
 10
138.5167450865
 20
-105.8107635209
 30
0.0
 40
0.9999999999998246
100
AcDbArc
 50
90.0000527816
 51
124.9999987103
  0
ARC
  5
2DA
330
1F
100
AcDbEntity
  8
0
  6
Continuous
 62
     7
370
    25
100
AcDbCircle
 10
139.8861469193
 20
-105.8107635209
 30
0.0
 40
0.9999999999997664
100
AcDbArc
 50
55.0000012897
 51
90.0000539432
  0
ARC
  5
2DB
330
1F
100
AcDbEntity
  8
0
  6
Continuous
 62
     7
370
    25
100
AcDbCircle
 10
154.2324959021
 20
-107.3107621202
 30
0.0
 40
6.000000000000058
100
AcDbArc
 50
235.0000012864
 51
270.0000005743
  0
ARC
  5
2DC
330
1F
100
AcDbEntity
  8
0
  6
Continuous
 62
     7
370
    25
100
AcDbCircle
 10
183.1014059476
 20
-107.3107621202
 30
0.0
 40
6.000000000000058
100
AcDbArc
 50
269.9999994257
 51
304.9999987136
  0
ARC
  5
2DD
330
1F
100
AcDbEntity
  8
0
  6
Continuous
 62
     7
370
    25
100
AcDbCircle
 10
197.4477549305
 20
-105.8107635209
 30
0.0
 40
1.00000000000022
100
AcDbArc
 50
89.9999460625
 51
124.9999987103
  0
ARC
  5
2DE
330
1F
100
AcDbEntity
  8
0
  6
Continuous
 62
     7
370
    25
100
AcDbCircle
 10
198.8171567632
 20
-105.8107635209
 30
0.0
 40
1.000000000000078
100
AcDbArc
 50
55.0000012897
 51
89.9999472184
  0
ARC
  5
2DF
330
1F
100
AcDbEntity
  8
0
  6
Continuous
 62
     7
370
    25
100
AcDbCircle
 10
202.3040508141
 20
-105.8107638487
 30
0.0
 40
1.000000000000112
100
AcDbArc
 50
235.0000012897
 51
269.9999472184
  0
ARC
  5
2E0
330
1F
100
AcDbEntity
  8
0
  6
Continuous
 62
     7
370
    25
100
AcDbCircle
 10
203.6734545095
 20
-105.8107638487
 30
0.0
 40
0.9999999999999524
100
AcDbArc
 50
269.9998393379
 51
304.9999987107
  0
ARC
  5
2E1
330
1F
100
AcDbEntity
  8
0
  6
Continuous
 62
     7
370
    25
100
AcDbCircle
 10
207.1603466978
 20
-105.8107635209
 30
0.0
 40
0.9999999999998083
100
AcDbArc
 50
90.0000527873
 51
124.9999987103
  0
ARC
  5
2E2
330
1F
100
AcDbEntity
  8
0
  6
Continuous
 62
     7
370
    25
100
AcDbCircle
 10
208.5297503932
 20
-105.8107635209
 30
0.0
 40
0.999999999999934
100
AcDbArc
 50
55.0000012897
 51
89.9999472184
  0
ARC
  5
2E3
330
1F
100
AcDbEntity
  8
0
  6
Continuous
 62
     7
370
    25
100
AcDbCircle
 10
212.0166425814
 20
-105.8107638487
 30
0.0
 40
1.000000000000153
100
AcDbArc
 50
235.0000012897
 51
269.9999472184
  0
ARC
  5
2E4
330
1F
100
AcDbEntity
  8
0
  6
Continuous
 62
     7
370
    25
100
AcDbCircle
 10
213.3860462768
 20
-105.8107638487
 30
0.0
 40
1.000000000000032
100
AcDbArc
 50
270.0000527816
 51
304.9999987103
  0
ARC
  5
2E5
330
1F
100
AcDbEntity
  8
0
  6
Continuous
 62
     7
370
    25
100
AcDbCircle
 10
216.8729384651
 20
-105.8107635209
 30
0.0
 40
1.000000000000071
100
AcDbArc
 50
90.0000527873
 51
124.9999987103
  0
ARC
  5
2E6
330
1F
100
AcDbEntity
  8
0
  6
Continuous
 62
     7
370
    25
100
AcDbCircle
 10
218.2423421605
 20
-105.8107635209
 30
0.0
 40
0.9999999999996826
100
AcDbArc
 50
55.0000012897
 51
89.9999472184
  0
ARC
  5
2E7
330
1F
100
AcDbEntity
  8
0
  6
Continuous
 62
     7
370
    25
100
AcDbCircle
 10
221.7292343487
 20
-105.8107638487
 30
0.0
 40
1.000000000000008
100
AcDbArc
 50
235.0000012897
 51
269.9999472184
  0
ARC
  5
2E8
330
1F
100
AcDbEntity
  8
0
  6
Continuous
 62
     7
370
    25
100
AcDbCircle
 10
223.0986380441
 20
-105.8107638487
 30
0.0
 40
1.000000000000279
100
AcDbArc
 50
270.0000527816
 51
304.9999987103
  0
ARC
  5
2E9
330
1F
100
AcDbEntity
  8
0
  6
Continuous
 62
     7
370
    25
100
AcDbCircle
 10
227.2161305903
 20
-107.8107635209
 30
0.0
 40
3.000000000000117
100
AcDbArc
 50
90.0000527862
 51
124.9999987137
  0
ARC
  5
2EA
330
1F
100
AcDbEntity
  8
0
  6
Continuous
 62
     7
370
    25
100
AcDbCircle
 10
230.4252301117
 20
-101.8107635209
 30
0.0
 40
2.999999999999954
100
AcDbArc
 50
270.0000828664
 51
316.6715956369
  0
ARC
  5
2EB
330
1F
100
AcDbEntity
  8
0
  6
Continuous
 62
     7
370
    25
100
AcDbCircle
 10
246.7118918013
 20
-94.746369668
 30
0.0
 40
4.00000000000002
100
AcDbArc
 50
101.6714521329
 51
136.6714717111
  0
ARC
  5
2EC
330
1F
100
AcDbEntity
  8
0
  6
Continuous
 62
     7
370
    25
100
AcDbCircle
 10
250.823313263
 20
-81.643698376
 30
0.0
 40
8.000000000000242
100
AcDbArc
 50
281.6715836423
 51
316.6715816385
  0
ARC
  5
2ED
330
1F
100
AcDbEntity
  8
0
  6
Continuous
 62
     7
370
    25
100
AcDbCircle
 10
291.9274380831
 20
-58.4712407105
 30
0.0
 40
5.999999999999901
100
AcDbArc
 50
110.1065306875
 51
136.6715307146
  0
ARC
  5
2EE
330
1F
100
AcDbEntity
  8
0
  6
Continuous
 62
     7
370
    25
100
AcDbCircle
 10
300.6602980937
 20
-51.0147417422
 30
0.0
 40
2.000000000000391
100
AcDbArc
 50
46.6715831523
 51
110.1065280986
  0
ARC
  5
2EF
330
1F
100
AcDbEntity
  8
0
  6
Continuous
 62
     7
370
    25
100
AcDbCircle
 10
313.4106339644
 20
-63.0419916906
 30
0.0
 40
2.00000000000019
100
AcDbArc
 50
343.2363892469
 51
46.6713225347
  0
ARC
  5
2F0
330
1F
100
AcDbEntity
  8
0
  6
Continuous
 62
     7
370
    25
100
AcDbCircle
 10
294.7152393111
 20
-137.2425470516
 30
0.0
 40
1.499999999999973
100
AcDbArc
 50
163.2364834151
 51
249.9996560617
  0
ARC
  5
2F1
330
1F
100
AcDbEntity
  8
0
  6
Continuous
 62
     7
370
    25
100
AcDbCircle
 10
296.4742597491
 20
-141.607396178
 30
0.0
 40
1.999999999999939
100
AcDbArc
 50
9.9999145044
 51
69.9997604404
  0
ARC
  5
2F2
330
1F
100
AcDbEntity
  8
0
  6
Continuous
 62
     7
370
    25
100
AcDbCircle
 10
300.5638732945
 20
-141.7656715108
 30
0.0
 40
2.000000000000169
100
AcDbArc
 50
190.0000830944
 51
250.0002458761
  0
ARC
  5
2F3
330
1F
100
AcDbEntity
  8
0
  6
Continuous
 62
     7
370
    25
100
AcDbCircle
 10
305.8748396473
 20
-150.0837716804
 30
0.0
 40
4.000000000000023
100
AcDbArc
 50
359.99997811
 51
69.9999720927
  0
ARC
  5
2F4
330
1F
100
AcDbEntity
  8
0
  6
Continuous
 62
     7
370
    25
100
AcDbCircle
 10
305.8748396473
 20
-172.5377533945
 30
0.0
 40
3.999999999999963
100
AcDbArc
 50
290.0000279073
 51
0.00002189
  0
ARC
  5
2F5
330
1F
100
AcDbEntity
  8
0
  6
Continuous
 62
     7
370
    25
100
AcDbCircle
 10
300.5638732945
 20
-180.8558535641
 30
0.0
 40
2.000000000000126
100
AcDbArc
 50
109.9997541233
 51
169.9999169025
  0
ARC
  5
2F6
330
1F
100
AcDbEntity
  8
0
  6
Continuous
 62
     7
370
    25
100
AcDbCircle
 10
296.4742597492
 20
-181.0141288968
 30
0.0
 40
1.999999999999794
100
AcDbArc
 50
290.0002395591
 51
350.0000854925
  0
ARC
  5
2F7
330
1F
100
AcDbEntity
  8
0
  6
Continuous
 62
     7
370
    25
100
AcDbCircle
 10
294.7152393111
 20
-185.3789780233
 30
0.0
 40
1.500000000000023
100
AcDbArc
 50
110.0003439383
 51
196.7635165849
  0
ARC
  5
2F8
330
1F
100
AcDbEntity
  8
0
  6
Continuous
 62
     7
370
    25
100
AcDbCircle
 10
313.4106339644
 20
-259.5795333842
 30
0.0
 40
2.000000000000035
100
AcDbArc
 50
313.3286774644
 51
16.7636107554
  0
ARC
  5
2F9
330
1F
100
AcDbEntity
  8
0
  6
Continuous
 62
     7
370
    25
100
AcDbCircle
 10
109.4169500606
 20
-185.3107627461
 30
0.0
 40
1.499999314550024
100
AcDbArc
 50
90.0
 51
270.0
  0
ARC
  5
2FA
330
1F
100
AcDbEntity
  8
0
  6
Continuous
 62
     7
370
    25
100
AcDbCircle
 10
139.9169504033
 20
-185.3107627461
 30
0.0
 40
1.499999314550024
100
AcDbArc
 50
270.0
 51
90.0
  0
ARC
  5
2FB
330
1F
100
AcDbEntity
  8
0
  6
Continuous
 62
     7
370
    25
100
AcDbCircle
 10
227.9169517891
 20
-137.3107623289
 30
0.0
 40
1.499999314550053
100
AcDbArc
 50
270.0
 51
90.0
  0
ARC
  5
2FC
330
1F
100
AcDbEntity
  8
0
  6
Continuous
 62
     7
370
    25
100
AcDbCircle
 10
197.4169514464
 20
-137.3107623289
 30
0.0
 40
1.499999314550053
100
AcDbArc
 50
90.0
 51
270.0
  0
ARC
  5
2FD
330
1F
100
AcDbEntity
  8
0
  6
Continuous
 62
     7
370
    25
100
AcDbCircle
 10
134.6669490771
 20
-123.3107618967
 30
0.0
 40
1.500001177199991
100
AcDbArc
 50
270.0
 51
90.0
  0
ARC
  5
2FE
330
1F
100
AcDbEntity
  8
0
  6
Continuous
 62
     7
370
    25
100
AcDbCircle
 10
104.6669478851
 20
-123.3107618967
 30
0.0
 40
1.500001177200005
100
AcDbArc
 50
90.0
 51
270.0
  0
ARC
  5
2FF
330
1F
100
AcDbEntity
  8
0
  6
Continuous
 62
     7
370
    25
100
AcDbCircle
 10
232.6669539647
 20
-123.3107618967
 30
0.0
 40
1.500001177200019
100
AcDbArc
 50
270.0
 51
90.0
  0
ARC
  5
300
330
1F
100
AcDbEntity
  8
0
  6
Continuous
 62
     7
370
    25
100
AcDbCircle
 10
202.6669527726
 20
-123.3107618967
 30
0.0
 40
1.500001177200005
100
AcDbArc
 50
90.0
 51
270.0
  0
ARC
  5
301
330
1F
100
AcDbEntity
  8
0
  6
Continuous
 62
     7
370
    25
100
AcDbCircle
 10
202.6669527726
 20
-199.3107631782
 30
0.0
 40
1.500001177200005
100
AcDbArc
 50
90.0
 51
270.0
  0
ARC
  5
302
330
1F
100
AcDbEntity
  8
0
  6
Continuous
 62
     7
370
    25
100
AcDbCircle
 10
232.6669539647
 20
-199.3107631782
 30
0.0
 40
1.500001177200005
100
AcDbArc
 50
270.0
 51
90.0
  0
ARC
  5
303
330
1F
100
AcDbEntity
  8
0
  6
Continuous
 62
     7
370
    25
100
AcDbCircle
 10
134.6669490771
 20
-199.3107631782
 30
0.0
 40
1.500001177200005
100
AcDbArc
 50
270.0
 51
90.0
  0
ARC
  5
304
330
1F
100
AcDbEntity
  8
0
  6
Continuous
 62
     7
370
    25
100
AcDbCircle
 10
104.6669478851
 20
-199.3107631782
 30
0.0
 40
1.500001177200005
100
AcDbArc
 50
90.0
 51
270.0
  0
ARC
  5
309
330
1F
100
AcDbEntity
  8
0
  6
Continuous
 62
     7
370
    25
100
AcDbCircle
 10
109.4169500606
 20
-137.3107623289
 30
0.0
 40
1.499999314550053
100
AcDbArc
 50
90.0
 51
270.0
  0
ARC
  5
30A
330
1F
100
AcDbEntity
  8
0
  6
Continuous
 62
     7
370
    25
100
AcDbCircle
 10
139.9169504033
 20
-137.3107623289
 30
0.0
 40
1.499999314550053
100
AcDbArc
 50
270.0
 51
90.0
  0
ARC
  5
30B
330
1F
100
AcDbEntity
  8
0
  6
Continuous
 62
     7
370
    25
100
AcDbCircle
 10
227.9169517891
 20
-185.3107627461
 30
0.0
 40
1.499999314550024
100
AcDbArc
 50
270.0
 51
90.0
  0
ARC
  5
30C
330
1F
100
AcDbEntity
  8
0
  6
Continuous
 62
     7
370
    25
100
AcDbCircle
 10
197.4169514464
 20
-185.3107627461
 30
0.0
 40
1.499999314550024
100
AcDbArc
 50
90.0
 51
270.0
  0
ARC
  5
30D
330
1F
100
AcDbEntity
  8
0
  6
Continuous
 62
     7
370
    25
100
AcDbCircle
 10
300.6602980938
 20
-271.6067833326
 30
0.0
 40
1.999999999999888
100
AcDbArc
 50
249.8934718991
 51
313.3284168447
  0
ARC
  5
30E
330
1F
100
AcDbEntity
  8
0
  6
Continuous
 62
     7
370
    25
100
AcDbCircle
 10
291.9274380831
 20
-264.1502843643
 30
0.0
 40
6.0000000000016
100
AcDbArc
 50
223.3284692855
 51
249.8934693125
  0
ARC
  5
30F
330
1F
100
AcDbEntity
  8
0
  6
Continuous
 62
     7
370
    25
100
AcDbCircle
 10
250.8233132631
 20
-240.9778266989
 30
0.0
 40
8.00000000000039
100
AcDbArc
 50
43.3284183628
 51
78.3284163586
  0
ARC
  5
310
330
1F
100
AcDbEntity
  8
0
  6
Continuous
 62
     7
370
    25
100
AcDbCircle
 10
246.7118918012
 20
-227.8751554068
 30
0.0
 40
3.999999999999864
100
AcDbArc
 50
223.3285282914
 51
258.3285478688
  0
ARC
  5
311
330
1F
100
AcDbEntity
  8
0
  6
Continuous
 62
     7
370
    25
100
AcDbCircle
 10
230.4252301117
 20
-220.810761554
 30
0.0
 40
3.000000000000073
100
AcDbArc
 50
43.3284043631
 51
89.9999171336
  0
ARC
  5
312
330
1F
100
AcDbEntity
  8
0
  6
Continuous
 62
     7
370
    25
100
AcDbCircle
 10
227.2161305903
 20
-214.810761554
 30
0.0
 40
3.000000000000449
100
AcDbArc
 50
235.0000012863
 51
269.9999472138
  0
ARC
  5
313
330
1F
100
AcDbEntity
  8
0
  6
Continuous
 62
     7
370
    25
100
AcDbCircle
 10
223.0986380439
 20
-216.8107612261
 30
0.0
 40
0.9999999999997744
100
AcDbArc
 50
55.0000012797
 51
89.9999472102
  0
ARC
  5
314
330
1F
100
AcDbEntity
  8
0
  6
Continuous
 62
     7
370
    25
100
AcDbCircle
 10
221.7292343489
 20
-216.8107612261
 30
0.0
 40
0.9999999999994926
100
AcDbArc
 50
90.0000527898
 51
124.9999987203
  0
ARC
  5
315
330
1F
100
AcDbEntity
  8
0
  6
Continuous
 62
     7
370
    25
100
AcDbCircle
 10
218.2423421603
 20
-216.810761554
 30
0.0
 40
1.000000000000533
100
AcDbArc
 50
270.0000527898
 51
304.9999987203
  0
ARC
  5
316
330
1F
100
AcDbEntity
  8
0
  6
Continuous
 62
     7
370
    25
100
AcDbCircle
 10
216.8729384653
 20
-216.810761554
 30
0.0
 40
0.9999999999999699
100
AcDbArc
 50
235.0000012797
 51
269.9999472045
  0
ARC
  5
317
330
1F
100
AcDbEntity
  8
0
  6
Continuous
 62
     7
370
    25
100
AcDbCircle
 10
164.4169500649
 20
-187.0607632574
 30
0.0
 40
4.0
100
AcDbArc
 50
90.0
 51
270.0
  0
ARC
  5
318
330
1F
100
AcDbEntity
  8
0
  6
Continuous
 62
     7
370
    25
100
AcDbCircle
 10
164.4169500649
 20
-135.5607632574
 30
0.0
 40
4.0
100
AcDbArc
 50
90.0
 51
270.0
  0
ARC
  5
319
330
1F
100
AcDbEntity
  8
0
  6
Continuous
 62
     7
370
    25
100
AcDbCircle
 10
172.9169500649
 20
-187.0607632574
 30
0.0
 40
4.0
100
AcDbArc
 50
270.0
 51
90.0
  0
ARC
  5
31A
330
1F
100
AcDbEntity
  8
0
  6
Continuous
 62
     7
370
    25
100
AcDbCircle
 10
172.9169500649
 20
-135.5607632574
 30
0.0
 40
4.000000000000028
100
AcDbArc
 50
270.0
 51
90.0
  0
ENDSEC
  0
SECTION
  2
OBJECTS
  0
DICTIONARY
  5
C
330
0
100
AcDbDictionary
281
     1
  3
ACAD_GROUP
350
D
  3
ACAD_LAYOUT
350
1A
  3
ACAD_MLINESTYLE
350
17
  3
ACAD_PLOTSETTINGS
350
19
  3
ACAD_PLOTSTYLENAME
350
E
  3
ACAD_SCALELIST
350
47
  3
DWGPROPS
350
31B
  0
DICTIONARY
  5
D
102
{ACAD_REACTORS
330
C
102
}
330
C
100
AcDbDictionary
281
     1
  0
DICTIONARY
  5
1A
102
{ACAD_REACTORS
330
C
102
}
330
C
100
AcDbDictionary
281
     1
  3
Layout1
350
1E
  3
Layout2
350
26
  3
Model
350
22
  0
DICTIONARY
  5
17
102
{ACAD_REACTORS
330
C
102
}
330
C
100
AcDbDictionary
281
     1
  3
Standard
350
18
  0
DICTIONARY
  5
19
102
{ACAD_REACTORS
330
C
102
}
330
C
100
AcDbDictionary
281
     1
  0
ACDBDICTIONARYWDFLT
  5
E
102
{ACAD_REACTORS
330
C
102
}
330
C
100
AcDbDictionary
281
     1
  3
Normal
350
F
100
AcDbDictionaryWithDefault
340
F
  0
DICTIONARY
  5
47
102
{ACAD_REACTORS
330
C
102
}
330
C
100
AcDbDictionary
281
     1
  3
A0
350
48
  3
A1
350
49
  3
A2
350
4A
  3
A3
350
4B
  3
A4
350
4C
  3
A5
350
4D
  3
A6
350
4E
  3
A7
350
4F
  3
A8
350
50
  3
A9
350
51
  3
B0
350
52
  3
B1
350
53
  3
B2
350
54
  3
B3
350
55
  3
B4
350
56
  3
B5
350
57
  3
B6
350
58
  3
B7
350
59
  3
B8
350
5A
  3
B9
350
5B
  3
C0
350
5C
  3
C1
350
5D
  3
C2
350
5E
  3
C3
350
5F
  3
C4
350
60
  3
C5
350
61
  3
C6
350
62
  3
C7
350
63
  3
C8
350
64
  3
C9
350
65
  3
D0
350
66
  3
D1
350
67
  3
D2
350
68
  0
XRECORD
  5
31B
102
{ACAD_REACTORS
330
C
102
}
330
C
100
AcDbXrecord
280
     1
  1
DWGPROPS COOKIE
  2

  3

  4

  6

  7

  8
Luken
  9

300
=
301
=
302
=
303
=
304
=
305
=
306
=
307
=
308
=
309
=
 40
0.0
 41
2459635.465844317
 42
2459635.786394908
  1

 90
        0
  0
LAYOUT
  5
1E
102
{ACAD_REACTORS
330
1A
102
}
330
1A
100
AcDbPlotSettings
  1

  2
none_device
  4

  6

 40
0.0
 41
0.0
 42
0.0
 43
0.0
 44
0.0
 45
0.0
 46
0.0
 47
0.0
 48
0.0
 49
0.0
140
0.0
141
0.0
142
1.0
143
1.0
 70
   688
 72
     1
 73
     0
 74
     5
  7

 75
    16
147
1.0
148
0.0
149
0.0
100
AcDbLayout
  1
Layout1
 70
     1
 71
     1
 10
0.0
 20
0.0
 11
420.0
 21
297.0
 12
0.0
 22
0.0
 32
0.0
 14
1.0000000000E+20
 24
1.0000000000E+20
 34
1.0000000000E+20
 15
-1.0000000000E+20
 25
-1.0000000000E+20
 35
-1.0000000000E+20
146
0.0
 13
0.0
 23
0.0
 33
0.0
 16
1.0
 26
0.0
 36
0.0
 17
0.0
 27
1.0
 37
0.0
 76
     0
330
1B
  0
LAYOUT
  5
26
102
{ACAD_REACTORS
330
1A
102
}
330
1A
100
AcDbPlotSettings
  1

  2
none_device
  4

  6

 40
0.0
 41
0.0
 42
0.0
 43
0.0
 44
0.0
 45
0.0
 46
0.0
 47
0.0
 48
0.0
 49
0.0
140
0.0
141
0.0
142
1.0
143
1.0
 70
   688
 72
     1
 73
     0
 74
     5
  7

 75
    16
147
1.0
148
0.0
149
0.0
100
AcDbLayout
  1
Layout2
 70
     1
 71
     2
 10
0.0
 20
0.0
 11
0.0
 21
0.0
 12
0.0
 22
0.0
 32
0.0
 14
0.0
 24
0.0
 34
0.0
 15
0.0
 25
0.0
 35
0.0
146
0.0
 13
0.0
 23
0.0
 33
0.0
 16
1.0
 26
0.0
 36
0.0
 17
0.0
 27
1.0
 37
0.0
 76
     0
330
23
  0
LAYOUT
  5
22
102
{ACAD_REACTORS
330
1A
102
}
330
1A
100
AcDbPlotSettings
  1

  2
none_device
  4
ANSI_A_(11.00_x_8.50_Inches)
  6

 40
6.35
 41
19.05
 42
6.35000508
 43
19.05000254
 44
279.4
 45
215.9
 46
-25.6152460897
 47
240.9321811661
 48
0.0
 49
0.0
140
0.0
141
0.0
142
0.0371055155
143
1.0
 70
  1696
 72
     0
 73
     0
 74
     0
  7

 75
     0
147
0.0179189148
148
-1300.4909072572
149
0.0
100
AcDbLayout
  1
Model
 70
     1
 71
     0
 10
0.0
 20
0.0
 11
420.0
 21
297.0
 12
0.0
 22
0.0
 32
0.0
 14
21.9232678853
 24
-273.6067833326
 34
0.0
 15
315.4106339644
 25
-49.0147417422
 35
0.0
146
0.0
 13
0.0
 23
0.0
 33
0.0
 16
1.0
 26
0.0
 36
0.0
 17
0.0
 27
1.0
 37
0.0
 76
     0
330
1F
331
29
  0
MLINESTYLE
  5
18
102
{ACAD_REACTORS
330
17
102
}
330
17
100
AcDbMlineStyle
  2
Standard
 70
     0
  3

 62
   256
 51
90.0
 52
90.0
 71
     2
 49
0.5
 62
   256
  6
BYLAYER
 49
-0.5
 62
   256
  6
BYLAYER
  0
ACDBPLACEHOLDER
  5
F
102
{ACAD_REACTORS
330
E
102
}
330
E
  0
SCALE
  5
48
102
{ACAD_REACTORS
330
47
102
}
330
47
100
AcDbScale
 70
     0
300
1:1
140
1.0
141
1.0
290
     1
  0
SCALE
  5
49
102
{ACAD_REACTORS
330
47
102
}
330
47
100
AcDbScale
 70
     0
300
1:2
140
1.0
141
2.0
290
     0
  0
SCALE
  5
4A
102
{ACAD_REACTORS
330
47
102
}
330
47
100
AcDbScale
 70
     0
300
1:4
140
1.0
141
4.0
290
     0
  0
SCALE
  5
4B
102
{ACAD_REACTORS
330
47
102
}
330
47
100
AcDbScale
 70
     0
300
1:5
140
1.0
141
5.0
290
     0
  0
SCALE
  5
4C
102
{ACAD_REACTORS
330
47
102
}
330
47
100
AcDbScale
 70
     0
300
1:8
140
1.0
141
8.0
290
     0
  0
SCALE
  5
4D
102
{ACAD_REACTORS
330
47
102
}
330
47
100
AcDbScale
 70
     0
300
1:10
140
1.0
141
10.0
290
     0
  0
SCALE
  5
4E
102
{ACAD_REACTORS
330
47
102
}
330
47
100
AcDbScale
 70
     0
300
1:16
140
1.0
141
16.0
290
     0
  0
SCALE
  5
4F
102
{ACAD_REACTORS
330
47
102
}
330
47
100
AcDbScale
 70
     0
300
1:20
140
1.0
141
20.0
290
     0
  0
SCALE
  5
50
102
{ACAD_REACTORS
330
47
102
}
330
47
100
AcDbScale
 70
     0
300
1:30
140
1.0
141
30.0
290
     0
  0
SCALE
  5
51
102
{ACAD_REACTORS
330
47
102
}
330
47
100
AcDbScale
 70
     0
300
1:40
140
1.0
141
40.0
290
     0
  0
SCALE
  5
52
102
{ACAD_REACTORS
330
47
102
}
330
47
100
AcDbScale
 70
     0
300
1:50
140
1.0
141
50.0
290
     0
  0
SCALE
  5
53
102
{ACAD_REACTORS
330
47
102
}
330
47
100
AcDbScale
 70
     0
300
1:100
140
1.0
141
100.0
290
     0
  0
SCALE
  5
54
102
{ACAD_REACTORS
330
47
102
}
330
47
100
AcDbScale
 70
     0
300
2:1
140
2.0
141
1.0
290
     0
  0
SCALE
  5
55
102
{ACAD_REACTORS
330
47
102
}
330
47
100
AcDbScale
 70
     0
300
4:1
140
4.0
141
1.0
290
     0
  0
SCALE
  5
56
102
{ACAD_REACTORS
330
47
102
}
330
47
100
AcDbScale
 70
     0
300
8:1
140
8.0
141
1.0
290
     0
  0
SCALE
  5
57
102
{ACAD_REACTORS
330
47
102
}
330
47
100
AcDbScale
 70
     0
300
10:1
140
10.0
141
1.0
290
     0
  0
SCALE
  5
58
102
{ACAD_REACTORS
330
47
102
}
330
47
100
AcDbScale
 70
     0
300
100:1
140
100.0
141
1.0
290
     0
  0
SCALE
  5
59
102
{ACAD_REACTORS
330
47
102
}
330
47
100
AcDbScale
 70
     0
300
1/128" = 1'-0"
140
0.0078125
141
12.0
290
     0
  0
SCALE
  5
5A
102
{ACAD_REACTORS
330
47
102
}
330
47
100
AcDbScale
 70
     0
300
1/64" = 1'-0"
140
0.015625
141
12.0
290
     0
  0
SCALE
  5
5B
102
{ACAD_REACTORS
330
47
102
}
330
47
100
AcDbScale
 70
     0
300
1/32" = 1'-0"
140
0.03125
141
12.0
290
     0
  0
SCALE
  5
5C
102
{ACAD_REACTORS
330
47
102
}
330
47
100
AcDbScale
 70
     0
300
1/16" = 1'-0"
140
0.0625
141
12.0
290
     0
  0
SCALE
  5
5D
102
{ACAD_REACTORS
330
47
102
}
330
47
100
AcDbScale
 70
     0
300
3/32" = 1'-0"
140
0.09375
141
12.0
290
     0
  0
SCALE
  5
5E
102
{ACAD_REACTORS
330
47
102
}
330
47
100
AcDbScale
 70
     0
300
1/8" = 1'-0"
140
0.125
141
12.0
290
     0
  0
SCALE
  5
5F
102
{ACAD_REACTORS
330
47
102
}
330
47
100
AcDbScale
 70
     0
300
3/16" = 1'-0"
140
0.1875
141
12.0
290
     0
  0
SCALE
  5
60
102
{ACAD_REACTORS
330
47
102
}
330
47
100
AcDbScale
 70
     0
300
1/4" = 1'-0"
140
0.25
141
12.0
290
     0
  0
SCALE
  5
61
102
{ACAD_REACTORS
330
47
102
}
330
47
100
AcDbScale
 70
     0
300
3/8" = 1'-0"
140
0.375
141
12.0
290
     0
  0
SCALE
  5
62
102
{ACAD_REACTORS
330
47
102
}
330
47
100
AcDbScale
 70
     0
300
1/2" = 1'-0"
140
0.5
141
12.0
290
     0
  0
SCALE
  5
63
102
{ACAD_REACTORS
330
47
102
}
330
47
100
AcDbScale
 70
     0
300
3/4" = 1'-0"
140
0.75
141
12.0
290
     0
  0
SCALE
  5
64
102
{ACAD_REACTORS
330
47
102
}
330
47
100
AcDbScale
 70
     0
300
1" = 1'-0"
140
1.0
141
12.0
290
     0
  0
SCALE
  5
65
102
{ACAD_REACTORS
330
47
102
}
330
47
100
AcDbScale
 70
     0
300
1-1/2" = 1'-0"
140
1.5
141
12.0
290
     0
  0
SCALE
  5
66
102
{ACAD_REACTORS
330
47
102
}
330
47
100
AcDbScale
 70
     0
300
3" = 1'-0"
140
3.0
141
12.0
290
     0
  0
SCALE
  5
67
102
{ACAD_REACTORS
330
47
102
}
330
47
100
AcDbScale
 70
     0
300
6" = 1'-0"
140
6.0
141
12.0
290
     0
  0
SCALE
  5
68
102
{ACAD_REACTORS
330
47
102
}
330
47
100
AcDbScale
 70
     0
300
1'-0" = 1'-0"
140
12.0
141
12.0
290
     0
  0
ENDSEC
  0
EOF
